<svg width="260" height="314" viewBox="0 0 260 314" fill="none" xmlns="http://www.w3.org/2000/svg">
<path d="M241.321 26.5811H36.2324C28.709 26.5811 22.5913 32.6935 22.5913 40.2105V180.633C22.5913 188.15 28.709 194.263 36.2324 194.263H241.321C248.845 194.263 254.962 188.15 254.962 180.633V40.2105C254.962 32.6935 248.845 26.5811 241.321 26.5811Z" fill="#F2F2F2"/>
<path d="M219.071 37.3972H13.982C6.45863 37.3972 0.340942 43.5097 0.340942 51.0267V191.449C0.340942 198.966 6.45863 205.079 13.982 205.079H219.071C226.594 205.079 232.712 198.966 232.712 191.449V51.0267C232.712 43.5097 226.594 37.3972 219.071 37.3972ZM231.278 150.119C231.278 179.681 207.293 203.645 177.706 203.645H13.982C7.24044 203.645 1.77533 198.185 1.77533 191.449V51.0267C1.77533 44.2909 7.24042 38.8304 13.9819 38.8304H219.071C225.812 38.8304 231.278 44.2909 231.278 51.0267V150.119Z" fill="#3F3D56"/>
<path d="M29.6355 174.647L28.4218 173.884C29.2107 172.631 30.0249 171.416 30.8409 170.274L32.0084 171.107C31.2082 172.226 30.4101 173.417 29.6355 174.647Z" fill="#CCCCCC"/>
<path d="M37.5446 164.434L36.5178 163.433C38.7065 161.192 41.0101 159.268 43.3641 157.715L44.1548 158.911C41.8859 160.408 39.6618 162.266 37.5446 164.434ZM73.3294 155.388C71.6166 155.388 70.0561 155.169 68.8879 154.978L69.1197 153.563C70.3033 153.757 71.729 153.954 73.3294 153.954C74.7427 153.954 76.1319 153.799 77.5761 153.48L77.8857 154.88C76.3386 155.221 74.8481 155.388 73.3294 155.388ZM51.8664 155.198L51.435 153.831C52.9758 153.346 54.572 152.982 56.179 152.749C57.5591 152.55 58.8787 152.453 60.2125 152.453H60.3008V153.886H60.2125C58.948 153.886 57.6961 153.978 56.3846 154.168C54.8539 154.389 53.3334 154.736 51.8664 155.198ZM86.0561 151.056L85.1393 149.954C87.1185 148.311 88.5372 146.325 90.0395 144.222L90.6387 143.385L91.8027 144.223L91.207 145.054C89.6494 147.235 88.1779 149.295 86.0561 151.056ZM97.5592 137.916L96.6767 136.785C98.6101 135.278 100.795 134.057 103.355 133.051C103.791 132.88 104.207 132.727 104.607 132.591L105.07 133.947C104.69 134.077 104.294 134.222 103.879 134.385C101.449 135.339 99.3823 136.494 97.5592 137.916ZM114.876 132.938C114.393 132.938 113.936 132.933 113.496 132.928L113.513 131.495C113.962 131.5 114.431 131.501 114.928 131.504C116.616 131.504 118.967 131.457 122.191 131.084L122.357 132.507C119.026 132.892 116.638 132.933 114.876 132.938ZM131.082 131.061L130.798 129.656C133.374 129.136 136.371 128.516 139.338 127.751L139.697 129.139C136.696 129.912 133.677 130.537 131.082 131.061ZM148.146 126.422L147.61 125.093C150.486 123.934 152.983 122.628 155.245 121.098L156.049 122.285C153.702 123.872 151.117 125.225 148.146 126.422ZM162.639 116.181L161.475 115.343C161.875 114.789 162.221 114.247 162.556 113.724C163.543 112.179 164.565 110.581 166.997 108.619L167.167 108.483L168.056 109.608L167.898 109.734C165.647 111.549 164.733 112.98 163.764 114.495C163.42 115.035 163.062 115.594 162.639 116.181ZM175.507 105.432L174.984 104.098C177.54 103.096 180.427 102.291 183.565 101.702L183.83 103.111C180.78 103.683 177.98 104.464 175.507 105.432Z" fill="#CCCCCC"/>
<path d="M192.598 102.059L192.508 100.628C193.902 100.541 195.359 100.484 196.839 100.457L196.865 101.89C195.406 101.916 193.97 101.973 192.598 102.059Z" fill="#CCCCCC"/>
<path d="M45.6303 52.9265H25.5058C24.4946 52.9265 23.6698 53.7506 23.6698 54.761C23.6698 55.7785 24.4946 56.6026 25.5058 56.6026H45.6303C46.6416 56.6026 47.4663 55.7785 47.4663 54.761C47.4663 53.7506 46.6416 52.9265 45.6303 52.9265Z" fill="#E6E6E6"/>
<path d="M79.3385 52.9265H59.2139C58.2027 52.9265 57.3779 53.7506 57.3779 54.761C57.3779 55.7785 58.2027 56.6026 59.2139 56.6026H79.3385C80.3497 56.6026 81.1745 55.7785 81.1745 54.761C81.1745 53.7506 80.3497 52.9265 79.3385 52.9265Z" fill="#E6E6E6"/>
<path d="M113.047 52.9265H92.9221C91.9109 52.9265 91.0861 53.7506 91.0861 54.761C91.0861 55.7785 91.9108 56.6026 92.9221 56.6026H113.047C114.058 56.6026 114.883 55.7785 114.883 54.761C114.883 53.7506 114.058 52.9265 113.047 52.9265Z" fill="#E6E6E6"/>
<path d="M206.534 173.549H23.6497V174.982H206.534V173.549Z" fill="#E6E6E6"/>
<path d="M196.874 68.9271C183.857 69.2638 174.146 73.0904 167.992 80.285C165.719 82.9507 164.794 85.0503 163.818 87.2717C162.85 89.4644 161.86 91.7217 159.558 94.6669V92.2305C160.985 90.138 161.753 88.3896 162.506 86.6913C163.524 84.3695 164.492 82.1768 166.902 79.3606C173.328 71.8364 183.398 67.845 196.831 67.4939L196.874 68.9271Z" fill="#CCCCCC"/>
<path d="M163.818 87.2718C162.85 89.4646 161.86 91.7219 159.558 94.667C159.286 95.0182 158.992 95.3836 158.676 95.7634C150.371 105.631 139.276 108.87 130.354 111.478C129.795 111.643 129.249 111.793 128.719 111.937C120.787 114.087 116.44 114.008 113.206 113.958C109.957 113.9 107.812 113.864 103.976 116.057C96.9398 120.063 94.0567 125.925 91.2669 131.593C88.3909 137.426 85.6799 142.936 78.7661 145.523C73.9681 147.315 70.5973 146.426 67.0328 145.495C63.9704 144.685 58.4511 124.754 53.5639 121.847C43.473 123.961 37.341 156.91 29.6885 174.552L28.3689 173.979C36.2222 155.892 42.6912 122.664 53.2627 120.443C57.9747 119.454 64.1784 143.259 67.3986 144.104C70.7407 144.986 73.8892 145.81 78.2641 144.176C84.6471 141.797 87.1143 136.774 89.9759 130.962C92.7299 125.373 95.8497 119.038 103.258 114.81C107.44 112.424 109.871 112.467 113.227 112.524C116.426 112.582 120.744 112.653 128.719 110.453C129.12 110.339 129.529 110.224 129.952 110.102C138.688 107.551 149.553 104.377 157.571 94.8462C158.36 93.9075 159.013 93.0404 159.558 92.2306C160.985 90.1382 161.753 88.3897 162.506 86.6914C163.524 84.3697 164.794 85.0504 163.818 87.2718Z" fill="#24FEEE"/>
<path d="M87.337 251.213C86.7692 249.237 85.797 247.553 84.6395 246.351L80.4342 227.197L71.2676 229.44L76.5205 248.629C76.175 250.252 76.2441 252.19 76.8119 254.166C78.1089 258.678 81.5164 261.675 84.4228 260.86C87.3292 260.044 88.6339 255.725 87.337 251.213Z" fill="#FFB6B6"/>
<path d="M86.0688 125.566C86.0688 125.566 71.5928 125.269 67.9119 135.802C64.5615 145.389 60.5898 171.729 62.7368 173.251L71.8758 238.091L84.9078 236.302L81.5632 158.503L86.0688 125.566Z" fill="#24FEEE"/>
<path d="M153.103 245.924L150.536 314H116.469L115.092 283.495L109.039 314H72.5265L77.0807 261.56L81.7854 250.532L84.9698 243.058L153.103 245.924Z" fill="#2F2E41"/>
<path d="M125.85 112.639L102.182 111.206L94.2934 121.238L77.0807 127.687L84.9698 204.362L81.3839 250.224C81.3839 250.224 131.587 290.353 153.103 245.924L147.366 192.18L148.8 129.837L132.305 122.671L125.85 112.639Z" fill="#24FEEE"/>
<path d="M171.414 95.1981C171.67 97.6825 171.344 100.019 170.593 101.892L174.536 125.405L163.283 126.952L160.495 102.934C159.377 101.254 158.58 99.0332 158.323 96.5488C157.737 90.8733 160.191 85.97 163.806 85.597C167.421 85.224 170.827 89.5226 171.414 95.1981Z" fill="#FFB6B6"/>
<path d="M151.814 132.529C147.935 125.904 138.312 125.28 134.002 131.633C132.824 133.37 133.153 135.323 132.871 137.668C131.677 147.626 150.776 177.052 163.991 180.44C165.725 180.884 166.713 182.753 168.463 183.129C173.648 184.243 178.475 180.131 178.195 174.839L174.606 106.973L159.525 112.112L160.491 147.347L151.814 132.529Z" fill="#24FEEE"/>
<path d="M116.472 109.351C127.986 109.351 137.32 100.026 137.32 88.5217C137.32 77.0179 127.986 67.6921 116.472 67.6921C104.959 67.6921 95.6251 77.0179 95.6251 88.5217C95.6251 100.026 104.959 109.351 116.472 109.351Z" fill="#FFB6B6"/>
<path d="M135.891 73.2266C135.711 73.2696 138.635 70.4224 138.759 70.3602C141.628 68.927 138.68 82.9363 136.608 82.5422C131.509 81.5748 129.307 79.6543 127.327 84.4483C126.775 85.7812 126.431 87.286 125.355 88.2391C123.878 89.5361 121.425 89.4286 120.22 90.9764C119.252 92.2233 119.531 94.0578 120.249 95.4622C120.966 96.874 122.056 98.0706 122.709 99.511C123.44 101.13 120.32 106.283 119.13 109.178V109.185L119.123 109.202C118.806 109.961 118.055 107.774 117.261 107.555C116.311 107.294 114.912 109.535 113.399 109.128C113.392 109.128 113.385 109.12 113.378 109.12C111.936 108.719 110.33 108.289 108.738 107.859H108.73C104.248 106.641 103.115 108.39 102.9 108.339L100.117 105.43C99.162 104.735 99.2699 102.492 98.5965 101.89C98.0458 101.397 96.6729 102.536 96.2682 102.062C94.2842 99.7405 93.8277 97.4179 92.6581 92.8324C91.5895 88.6404 89.3734 76.0929 93.9276 75.5268C98.2236 74.9893 95.0823 69.013 99.407 69.2352C99.1488 68.1459 99.6293 66.9779 100.411 66.1753C101.186 65.3656 102.218 64.864 103.258 64.434C108.386 62.3416 107.533 60.543 112.94 61.7612C113.478 61.0088 121.289 61.5103 122.264 61.7612C122.336 61.7755 119.847 62.3703 123.698 61.7612C123.555 62.6426 125.993 63.0295 125.85 63.9109C126.388 63.1872 132.168 67.3434 132.305 68.2105C132.484 69.2925 130.849 68.7407 131.939 68.9055C132.584 69.0059 133.689 70.3172 133.581 70.9693C134.047 70.3387 134.514 69.7153 134.987 69.0847C135.073 69.0918 135.152 69.1062 135.238 69.1205C137.418 69.5361 134.919 76.6575 135.009 74.4376C135.173 70.3602 138.064 72.7465 135.891 73.2266Z" fill="#2F2E41"/>
<path d="M215.757 184.091C215.918 184.486 216.472 184.486 216.633 184.091C217.753 181.332 219.347 178.243 221.081 175.883C221.359 175.505 220.976 174.999 220.535 175.159L216.817 176.503V153.51H215.573V176.503L211.854 175.159C211.413 174.999 211.03 175.504 211.308 175.882C213.042 178.243 214.637 181.332 215.757 184.091Z" fill="#3F3D56"/>
<path d="M240.135 207.765C240.015 208.174 240.449 208.519 240.821 208.309C243.415 206.845 246.586 205.416 249.414 204.645C249.866 204.522 249.881 203.888 249.436 203.739L245.689 202.482L260 184.476L259.025 183.703L244.714 201.708L242.638 198.345C242.392 197.946 241.778 198.104 241.76 198.572C241.649 201.499 240.975 204.909 240.135 207.765Z" fill="#3F3D56"/>
<path d="M228.493 223.109H204.308C202.806 223.109 201.585 221.888 201.585 220.388C198.387 211.05 198.45 201.899 201.585 192.926C201.585 191.426 202.806 190.205 204.308 190.205H228.493C229.994 190.205 231.216 191.426 231.216 192.926V220.388C231.216 221.888 229.994 223.109 228.493 223.109Z" fill="#E6E6E6"/>
<path d="M209.49 191.016C205.572 191.016 202.396 194.189 202.396 198.103V219.805C202.396 221.182 203.513 222.298 204.891 222.298H218.265C224.97 222.298 230.405 216.868 230.405 210.169V193.509C230.405 192.132 229.288 191.016 227.91 191.016H209.49Z" fill="white"/>
<path d="M222.033 198.997H210.71C210.424 198.997 210.192 198.765 210.192 198.479C210.192 198.194 210.424 197.962 210.71 197.962H222.033C222.318 197.962 222.55 198.194 222.55 198.479C222.55 198.765 222.318 198.997 222.033 198.997Z" fill="#E6E6E6"/>
<path d="M222.033 210.027H210.71C210.424 210.027 210.192 209.795 210.192 209.509C210.192 209.224 210.424 208.992 210.71 208.992H222.033C222.318 208.992 222.55 209.224 222.55 209.509C222.55 209.795 222.318 210.027 222.033 210.027Z" fill="#E6E6E6"/>
<path d="M228.109 204.515H204.634C204.348 204.515 204.116 204.283 204.116 203.998C204.116 203.713 204.348 203.481 204.634 203.481H228.109C228.394 203.481 228.626 203.713 228.626 203.998C228.626 204.283 228.394 204.515 228.109 204.515Z" fill="#E6E6E6"/>
<path d="M228.386 214.512H218.59C218.305 214.512 218.073 214.279 218.073 213.994C218.073 213.709 218.305 213.477 218.59 213.477H228.386C228.671 213.477 228.903 213.709 228.903 213.994C228.903 214.279 228.671 214.512 228.386 214.512Z" fill="#E6E6E6"/>
<path d="M8.93859 17.7157C13.8752 17.7157 17.8772 13.8014 17.8772 8.97284C17.8772 4.14429 13.8752 0.22998 8.93859 0.22998C4.00195 0.22998 0 4.14429 0 8.97284C0 13.8014 4.00195 17.7157 8.93859 17.7157Z" fill="#24FEEE"/>
<path d="M80.5955 5.98196H32.4825C30.832 5.98196 29.489 4.64015 29.489 2.99098C29.489 1.3418 30.832 0 32.4825 0H80.5955C82.246 0 83.589 1.3418 83.589 2.99098C83.589 4.64015 82.246 5.98196 80.5955 5.98196Z" fill="#F2F2F2"/>
<path d="M118.143 16.1052H32.4825C30.832 16.1052 29.489 14.7634 29.489 13.1143C29.489 11.4651 30.832 10.1233 32.4825 10.1233H118.143C119.794 10.1233 121.136 11.4651 121.136 13.1143C121.136 14.7634 119.794 16.1052 118.143 16.1052Z" fill="#F2F2F2"/>
</svg>
