<svg width="56" height="56" viewBox="0 0 56 56" fill="none" xmlns="http://www.w3.org/2000/svg">
<path d="M25.891 6.99408C16.253 8.19671 8.86791 15.0906 7.24183 24.3898C6.92 26.253 6.92 29.5052 7.24183 31.5547C8.64771 40.1594 15.6771 47.2227 24.3326 48.7472C26.4499 49.1029 29.9392 49.0859 32.0057 48.6794C39.8651 47.138 46.2848 41.108 48.3343 33.3332C49.0288 30.7078 49.1982 26.9983 48.7578 24.4406C47.2333 15.7173 40.3225 8.75568 31.667 7.2651C29.7868 6.92633 27.2969 6.8247 25.891 6.99408ZM31.8025 9.14526C35.0038 9.7381 38.6456 11.6183 41.0677 13.9219C42.8801 15.6496 43.9981 17.0893 45.0313 19.0711C46.5897 22.0862 47.1317 24.4067 47.1317 28.1501C47.1317 30.928 46.8268 32.6218 45.9629 34.8746C45.116 37.0427 43.2697 40.1255 42.8632 39.99C42.7616 39.9561 42.5244 39.3972 42.3212 38.7535C41.1863 35.1965 38.4592 31.8427 35.2748 30.0641C33.4116 29.014 33.1745 28.9801 31.4468 29.5729C30.1425 30.0133 29.6852 30.0811 28.076 30.0811C26.433 30.098 26.0604 30.0472 24.9424 29.6237C23.0623 28.9123 22.9776 28.9123 21.4701 29.6576C17.9638 31.3684 14.8641 34.9255 13.6615 38.618C13.4074 39.3972 13.1533 40.0239 13.0686 40.0239C12.5605 40.0239 10.3754 36.0095 9.64708 33.7567C8.44445 30.0472 8.51221 25.2875 9.81646 21.6796C12.408 14.447 18.8107 9.50096 26.4669 8.78955C27.6526 8.68792 30.3119 8.8573 31.8025 9.14526Z" fill="white"/>
<path d="M26.1441 13.1935C24.8568 13.5323 23.7558 14.176 22.7733 15.1414C19.1316 18.7832 20.114 24.8471 24.6874 26.9983C28.4985 28.7938 33.0719 27.1846 34.8165 23.4751C35.3077 22.408 35.3416 22.1878 35.3586 20.4431C35.3586 18.6138 35.3416 18.5461 34.7149 17.2757C33.0719 13.9558 29.5487 12.2789 26.1441 13.1935Z" fill="white"/>
</svg>
