<svg width="32" height="32" viewBox="0 0 32 32" fill="none" xmlns="http://www.w3.org/2000/svg">
<g clip-path="url(#clip0_70_3116)">
<path d="M18.4224 2.04546C18.2448 2.08592 18.0636 2.10805 17.8816 2.11151C16.4597 2.29626 15.0645 2.65104 13.7255 3.16838L13.2065 3.38416C12.4581 3.69088 11.7298 4.04535 11.026 4.44543C10.9054 4.52334 10.7748 4.5841 10.6378 4.62598C10.5288 4.6524 10.4416 4.70524 10.4416 4.73607C10.4416 4.76689 10.3805 4.81093 10.3151 4.84175C10.1892 4.89296 10.0693 4.95793 9.95749 5.03551C9.83164 5.11893 9.70053 5.19395 9.56499 5.2601C9.4171 5.32967 9.27801 5.4169 9.15069 5.51991C9.06378 5.59604 8.96693 5.65976 8.86285 5.70927C7.73128 6.41303 6.65393 7.20205 5.64 8.0696C5.0735 8.58325 4.5512 9.14452 4.07873 9.74738C4.0396 9.83081 3.98648 9.90679 3.92173 9.97197C3.51599 10.5159 3.15153 11.09 2.83146 11.6894C2.75296 11.8743 2.58723 12.2046 2.48257 12.4292C2.11552 13.2114 1.95335 14.0756 2.01157 14.9392C2.00085 15.326 2.07327 15.7105 2.22385 16.0663C2.37442 16.4221 2.59957 16.7407 2.88379 17.0001C3.20634 17.3286 3.59119 17.588 4.01532 17.7628C4.43944 17.9375 4.89413 18.0241 5.35217 18.0174C6.05261 18.0627 6.75546 17.9822 7.42805 17.7796C7.66791 17.7091 7.995 17.6299 8.152 17.5814C8.29229 17.551 8.42846 17.5037 8.55758 17.4405C8.72766 17.3524 9.68274 16.9165 9.72635 16.9165C10.8134 16.3414 11.8622 15.6956 12.8663 14.9833C13.8171 14.3404 14.6544 13.7811 14.7285 13.7415C14.8027 13.7018 15.2475 13.4288 15.7272 13.1382C16.2069 12.8475 16.8001 12.5084 17.0356 12.3851L17.8118 11.9712C17.9994 11.8831 18.3439 11.7202 18.5881 11.6277C18.8323 11.5352 19.1376 11.4031 19.2554 11.3503C19.3731 11.2975 19.5606 11.2182 19.6609 11.1742C20.1729 11.011 20.7035 10.9148 21.2397 10.8879C21.8473 10.8066 22.4639 10.9432 22.9819 11.274C23.5 11.6047 23.8866 12.1087 24.0744 12.6978C24.2153 13.1697 24.2627 13.665 24.2139 14.1554C24.2632 14.9655 24.1382 15.7767 23.8476 16.5334L23.6601 16.9737C23.1219 18.1639 22.4487 19.287 21.654 20.3205C20.5203 21.7605 19.2527 23.0877 17.8685 24.2837L16.8698 25.1204C16.5558 25.3802 16.1939 25.64 15.797 25.9131C15.6313 26.0143 15.3609 26.1949 15.2039 26.3138C14.4437 26.7912 13.6526 27.2164 12.8358 27.5864L12.2296 27.855C12.1087 27.9203 11.9773 27.9635 11.8415 27.9828C11.7136 27.9953 11.5877 28.0234 11.4664 28.0664C11.3598 28.1094 11.2443 28.1254 11.1301 28.1132C11.0159 28.1009 10.9064 28.0607 10.811 27.9961C10.7157 27.9315 10.6373 27.8444 10.5828 27.7423C10.5283 27.6402 10.4993 27.5262 10.4983 27.4103C10.4983 26.7982 10.7861 26.4063 12.6047 24.5832C14.5715 22.6147 14.7852 22.3197 14.7852 21.5755C14.7852 20.8313 14.4233 20.2808 13.6077 19.8625C13.2671 19.679 12.8786 19.6067 12.4956 19.6555C11.907 19.6228 11.323 19.7768 10.8253 20.0959C10.7076 20.1707 10.5201 20.2676 10.4198 20.3205C10.3411 20.358 10.2666 20.4038 10.1973 20.457C10.1973 20.457 10.0273 20.5891 9.86154 20.7168C9.31947 21.1705 8.8268 21.6813 8.39186 22.2404C8.04479 22.7284 7.73985 23.2455 7.48039 23.7861C7.04668 24.6859 6.79184 25.6629 6.73028 26.6617C6.73028 28.269 7.55889 29.5548 8.84105 29.9203C9.66924 30.0266 10.5074 30.0266 11.3356 29.9203C12.02 29.7657 12.6921 29.5597 13.3461 29.3038C13.3976 29.2639 13.46 29.2409 13.5249 29.2378C14.6131 28.7809 15.6644 28.2391 16.6692 27.6173C16.8393 27.5028 17.0312 27.3751 17.1053 27.331C17.1795 27.287 17.5414 27.08 17.8816 26.8554C18.2218 26.6308 18.5489 26.4151 18.5707 26.4151C18.7479 26.2687 18.9328 26.132 19.1245 26.0055L19.8659 25.4903C19.9924 25.3978 20.3369 25.1292 20.6422 24.8826C22.3381 23.557 23.8867 22.0494 25.2606 20.3865C25.4219 20.1884 25.5702 19.999 25.592 19.977C25.9181 19.5527 26.2224 19.1118 26.5035 18.6559C26.6936 18.3615 26.8682 18.0572 27.0268 17.7443C27.1664 17.4757 27.3626 17.1102 27.4629 16.9209C27.5632 16.7315 27.7639 16.2515 27.9252 15.8376C28.0866 15.4236 28.2392 15.0229 28.2654 14.9569C28.5703 14.0198 28.7936 13.0576 28.9326 12.0813C29.0779 10.7679 28.9878 9.43883 28.6666 8.15768C28.5521 7.78468 28.4062 7.42226 28.2305 7.07439C27.6475 5.79283 26.7461 4.6854 25.6138 3.85975C25.4613 3.7613 25.3156 3.65242 25.1777 3.53388C24.4287 3.06593 23.6223 2.6988 22.7791 2.44178C22.3205 2.30852 21.8545 2.20265 21.3836 2.12472C20.9082 2.04986 20.0491 2.00142 19.3731 2.00142H19.0286C18.8256 1.9951 18.6224 2.00986 18.4224 2.04546Z" fill="#ED1D24"/>
</g>
<defs>
<clipPath id="clip0_70_3116">
<rect width="32" height="32" rx="3" fill="white"/>
</clipPath>
</defs>
</svg>
