<svg xmlns="http://www.w3.org/2000/svg" width="29.076" height="34" viewBox="0 0 29.076 34">
  <g id="bell-03" transform="translate(0.996 1)">
    <path id="bell-03-2" data-name="bell-03" d="M21.878,29.2a4.8,4.8,0,1,1-9.6,0M19.952,8.782a4,4,0,1,0-5.749,0M26.678,16.72a7.8,7.8,0,0,0-2.812-5.883A10.4,10.4,0,0,0,17.078,8.4a10.4,10.4,0,0,0-6.788,2.437A7.8,7.8,0,0,0,7.478,16.72a15.87,15.87,0,0,1-2.035,8.232,17.959,17.959,0,0,0-1.906,3.526.629.629,0,0,0,.324.568,13.2,13.2,0,0,0,3.39.154H26.9a13.2,13.2,0,0,0,3.39-.154.629.629,0,0,0,.324-.568,17.972,17.972,0,0,0-1.906-3.526A15.869,15.869,0,0,1,26.678,16.72Z" transform="translate(-3.536 -2)" fill="none" stroke="#24feee" stroke-linecap="round" stroke-linejoin="round" stroke-width="2"/>
  </g>
</svg>
