<svg xmlns="http://www.w3.org/2000/svg" width="23.6" height="26" viewBox="0 0 23.6 26">
  <g id="calendar" transform="translate(1 1)">
    <path id="calendar-2" data-name="calendar" d="M24.6,11.6H3M18.6,2V6.8M9,2V6.8M8.76,26H18.84c2.016,0,3.024,0,3.794-.392a3.6,3.6,0,0,0,1.573-1.573c.392-.77.392-1.778.392-3.794V10.16c0-2.016,0-3.024-.392-3.794a3.6,3.6,0,0,0-1.573-1.573C21.864,4.4,20.856,4.4,18.84,4.4H8.76c-2.016,0-3.024,0-3.794.392A3.6,3.6,0,0,0,3.392,6.366C3,7.136,3,8.144,3,10.16V20.24c0,2.016,0,3.024.392,3.794a3.6,3.6,0,0,0,1.573,1.573C5.736,26,6.744,26,8.76,26Z" transform="translate(-3 -2)" fill="none" stroke="#141414" stroke-linecap="round" stroke-linejoin="round" stroke-width="2"/>
  </g>
</svg>
