<svg width="200" height="80" viewBox="0 0 200 80" fill="none" xmlns="http://www.w3.org/2000/svg">
<rect width="200" height="80" rx="20" fill="white"/>
<path d="M180 22.3662H19.9997V22.1753H180V22.3662Z" fill="#9D9E9E"/>
<path d="M180 26.3386H19.9997V26.1477H180V26.3386Z" fill="#9D9E9E"/>
<path d="M180 30.3092H19.9997V30.1182H180V30.3092Z" fill="#9D9E9E"/>
<path d="M180 34.2799H19.9997V34.0889H180V34.2799Z" fill="#9D9E9E"/>
<path d="M180 38.2519H19.9997V38.061H180V38.2519Z" fill="#9D9E9E"/>
<path d="M180 42.2297H19.9997V42.0388H180V42.2297Z" fill="#9D9E9E"/>
<path d="M180 46.2008H19.9997V46.0098H180V46.2008Z" fill="#9D9E9E"/>
<path d="M180 50.1727H19.9997V49.9817H180V50.1727Z" fill="#9D9E9E"/>
<path d="M180 54.143H19.9997V53.9521H180V54.143Z" fill="#9D9E9E"/>
<path d="M180 58.1168H19.9997V57.9258H180V58.1168Z" fill="#9D9E9E"/>
<path d="M180 62.0856H19.9997V61.8945H180V62.0856Z" fill="#9D9E9E"/>
<path d="M180 66.0581H19.9997V65.8672H180V66.0581Z" fill="#9D9E9E"/>
<path d="M24.1934 70.1725V18.7991H24.38V70.1725H24.1934Z" fill="#9D9E9E"/>
<path d="M27.8098 70.1725V18.7991H27.9964V70.1725H27.8098Z" fill="#9D9E9E"/>
<path d="M31.4251 70.1725V18.7991H31.6116V70.1725H31.4251Z" fill="#9D9E9E"/>
<path d="M35.0401 70.1725V18.7991H35.2266V70.1725H35.0401Z" fill="#9D9E9E"/>
<path d="M38.6581 70.1725V18.7991H38.8446V70.1725H38.6581Z" fill="#9D9E9E"/>
<path d="M42.2731 70.1725V18.7991H42.4597V70.1725H42.2731Z" fill="#9D9E9E"/>
<path d="M45.8884 70.1725V18.7991H46.075V70.1725H45.8884Z" fill="#9D9E9E"/>
<path d="M49.5064 70.1725V18.7991H49.693V70.1725H49.5064Z" fill="#9D9E9E"/>
<path d="M53.1216 70.1725V18.7991H53.308V70.1725H53.1216Z" fill="#9D9E9E"/>
<path d="M56.7364 70.1725V18.7991H56.9229V70.1725H56.7364Z" fill="#9D9E9E"/>
<path d="M60.3549 70.1725V18.7991H60.5413V70.1725H60.3549Z" fill="#9D9E9E"/>
<path d="M63.9697 70.1725V18.7991H64.1563V70.1725H63.9697Z" fill="#9D9E9E"/>
<path d="M67.5851 70.1725V18.7991H67.7716V70.1725H67.5851Z" fill="#9D9E9E"/>
<path d="M71.2028 70.1725V18.7991H71.3894V70.1725H71.2028Z" fill="#9D9E9E"/>
<path d="M74.8152 70.1725V18.7991H75.0017V70.1725H74.8152Z" fill="#9D9E9E"/>
<path d="M78.4332 70.1725V18.7991H78.6196V70.1725H78.4332Z" fill="#9D9E9E"/>
<path d="M82.0517 70.1725V18.7991H82.2381V70.1725H82.0517Z" fill="#9D9E9E"/>
<path d="M85.6663 70.1725V18.7991H85.8528V70.1725H85.6663Z" fill="#9D9E9E"/>
<path d="M89.2816 70.1725V18.7991H89.4682V70.1725H89.2816Z" fill="#9D9E9E"/>
<path d="M92.8963 70.1725V18.7991H93.0829V70.1725H92.8963Z" fill="#9D9E9E"/>
<path d="M96.5148 70.1725V18.7991H96.7014V70.1725H96.5148Z" fill="#9D9E9E"/>
<path d="M100.13 70.1725V18.7991H100.316V70.1725H100.13Z" fill="#9D9E9E"/>
<path d="M103.745 70.1725V18.7991H103.931V70.1725H103.745Z" fill="#9D9E9E"/>
<path d="M107.36 70.1725V18.7991H107.546V70.1725H107.36Z" fill="#9D9E9E"/>
<path d="M110.977 70.1725V18.7991H111.163V70.1725H110.977Z" fill="#9D9E9E"/>
<path d="M114.593 70.1725V18.7991H114.779V70.1725H114.593Z" fill="#9D9E9E"/>
<path d="M118.211 70.1725V18.7991H118.397V70.1725H118.211Z" fill="#9D9E9E"/>
<path d="M121.826 70.1725V18.7991H122.013V70.1725H121.826Z" fill="#9D9E9E"/>
<path d="M125.444 70.1725V18.7991H125.631V70.1725H125.444Z" fill="#9D9E9E"/>
<path d="M129.059 70.1725V18.7991H129.246V70.1725H129.059Z" fill="#9D9E9E"/>
<path d="M132.676 70.1725V18.7991H132.862V70.1725H132.676Z" fill="#9D9E9E"/>
<path d="M136.291 70.1725V18.7991H136.478V70.1725H136.291Z" fill="#9D9E9E"/>
<path d="M139.907 70.1725V18.7991H140.094V70.1725H139.907Z" fill="#9D9E9E"/>
<path d="M143.523 70.1725V18.7991H143.709V70.1725H143.523Z" fill="#9D9E9E"/>
<path d="M147.139 70.1725V18.7991H147.326V70.1725H147.139Z" fill="#9D9E9E"/>
<path d="M150.756 70.1725V18.7991H150.942V70.1725H150.756Z" fill="#9D9E9E"/>
<path d="M154.372 70.1725V18.7991H154.559V70.1725H154.372Z" fill="#9D9E9E"/>
<path d="M157.992 70.1725V18.7991H158.178V70.1725H157.992Z" fill="#9D9E9E"/>
<path d="M161.604 70.1725V18.7991H161.79V70.1725H161.604Z" fill="#9D9E9E"/>
<path d="M165.222 70.1725V18.7991H165.408V70.1725H165.222Z" fill="#9D9E9E"/>
<path d="M168.837 70.1725V18.7991H169.024V70.1725H168.837Z" fill="#9D9E9E"/>
<path d="M172.452 70.1725V18.7991H172.639V70.1725H172.452Z" fill="#9D9E9E"/>
<path d="M176.07 70.1725V18.7991H176.257V70.1725H176.07Z" fill="#9D9E9E"/>
<path fill-rule="evenodd" clip-rule="evenodd" d="M24.0904 42.3461C24.1806 41.4838 24.2982 40.6069 24.4422 39.7243C25.1605 35.4232 26.8184 31.4392 29.4082 27.7619C31.9997 24.0906 36.1222 22.0539 41.7703 21.6519C42.672 21.6519 43.6972 21.7618 44.8503 21.984C46.0019 22.2057 47.1887 22.5958 48.4116 23.1555C50.2831 24.0815 52.063 25.5643 53.7558 27.613C55.4483 29.6617 56.6886 32.5739 57.4812 36.3492H51.9757C51.1846 33.1365 49.8424 30.7486 47.9535 29.1792C46.0629 27.613 44.0402 26.8315 41.8792 26.8315C41.7355 26.8315 41.6016 26.8315 41.4735 26.8315C41.3485 26.8315 41.2308 26.8524 41.1246 26.8926C38.2801 27.1322 35.6626 28.6879 33.2691 31.5585C30.8755 34.4304 29.6074 38.5573 29.465 43.9436C29.465 50.4063 30.6693 55.0741 33.0802 57.9442C35.4912 60.8148 38.135 62.2696 41.0143 62.311C41.0522 62.311 41.0784 62.311 41.0987 62.311C41.1146 62.311 41.1424 62.311 41.1788 62.311C43.9854 62.311 46.5779 61.1972 48.9526 58.9671C51.3275 56.7413 52.6232 53.7817 52.8412 50.0849H58.3452C58.2725 50.6072 58.1912 51.139 58.1039 51.6813C58.0124 52.2261 57.8945 52.7755 57.7524 53.3379C56.8186 56.9124 55.0097 60.182 52.3249 63.1536C49.6436 66.1266 46.2698 67.6092 42.2039 67.6092C36.0498 67.8107 31.4574 65.6131 28.4385 61.0156C25.414 56.4198 23.9015 51.0472 23.9015 44.9054C23.9378 44.0614 24.0018 43.2097 24.0906 42.3465L24.0904 42.3461Z" fill="#264796"/>
<path fill-rule="evenodd" clip-rule="evenodd" d="M78.2847 29.7209L66.7852 66.2261H60.8449L74.8808 22.134H81.2517L95.6657 66.2261H89.7294L78.2847 29.7209Z" fill="#9D9E9E"/>
<path fill-rule="evenodd" clip-rule="evenodd" d="M100.825 22.134H108.712L120.183 59.1186L131.651 22.134H139.594V66.2261H133.832V31.1081L122.811 66.2261H117.551L106.532 31.5876V66.2261H100.825V22.134Z" fill="#264796"/>
<path fill-rule="evenodd" clip-rule="evenodd" d="M150.636 52.0126C150.636 55.5855 151.706 58.225 153.847 59.9298C155.988 61.6389 158.355 62.5514 160.947 62.6723C161.017 62.6723 161.092 62.6723 161.164 62.6723C161.237 62.6723 161.307 62.6723 161.377 62.6723C163.684 62.6723 165.798 62.0811 167.721 60.8943C169.646 59.7112 170.755 58.0165 171.042 55.8043C171.077 55.6449 171.094 55.4946 171.094 55.3546C171.094 55.2147 171.094 55.0644 171.094 54.905C171.094 52.0943 170.041 50.1948 167.938 49.2119C165.83 48.2264 163.427 47.436 160.732 46.833C160.406 46.7525 160.1 46.6828 159.814 46.6217C159.526 46.562 159.237 46.4923 158.949 46.41C155.746 45.6478 152.838 44.4449 150.228 42.7986C147.62 41.1518 146.478 37.8929 146.8 33.0336C147.016 29.9428 148.295 27.2736 150.636 25.024C152.975 22.7774 156.376 21.6519 160.839 21.6519C165.3 21.6519 168.872 22.7982 171.554 25.0849C174.235 27.3715 175.467 30.6456 175.253 34.8989H170.176C170.176 34.8219 170.176 34.7606 170.176 34.7204C170.176 34.6801 170.176 34.6222 170.176 34.539C170.176 34.5002 170.176 34.4494 170.176 34.39C170.176 34.329 170.176 34.2827 170.176 34.2384C170.176 31.7489 169.234 29.8418 167.344 28.5183C165.454 27.1932 163.377 26.4905 161.107 26.4088C161.037 26.4088 160.973 26.4088 160.919 26.4088C160.865 26.4088 160.819 26.4088 160.784 26.4088C158.591 26.4088 156.581 27.0207 154.764 28.2473C152.946 29.4712 151.983 31.3887 151.875 33.9969C152.165 36.126 153.254 37.6237 155.142 38.4874C157.032 39.3523 159.219 40.0861 161.703 40.6876C162.133 40.8098 162.584 40.929 163.049 41.0508C163.517 41.1716 163.989 41.2922 164.457 41.4129C167.372 42.1751 170.078 43.3288 172.58 44.8742C175.082 46.4209 176.547 49.1235 176.98 52.9778C177.196 57.7524 175.649 61.3851 172.339 63.8758C169.026 66.3646 165.354 67.6497 161.324 67.7317C161.287 67.7317 161.261 67.7317 161.243 67.7317C161.226 67.7317 161.197 67.7317 161.164 67.7317C157.204 67.7317 153.579 66.4557 150.285 63.907C146.992 61.358 145.399 57.3937 145.506 52.0133H150.636V52.0126Z" fill="#264796"/>
<path fill-rule="evenodd" clip-rule="evenodd" d="M95.3367 35.3988C95.1015 35.2262 94.8101 35.2767 94.5297 35.3184L89.1132 35.9975C88.6999 36.1869 88.5167 36.6822 88.7014 37.1064C88.8879 37.5248 89.3718 37.7171 89.7891 37.5668L92.3293 37.3136L88.8279 41.3942L82.3581 41.8276L82.1214 42.2474L79.8644 46.2388H72.4424L72.1979 46.5811L69.9469 49.7196H62.4434L62.205 50.0916L59.4506 54.5804C59.2004 54.9648 59.3023 55.4841 59.6774 55.7391C60.0527 55.995 60.5616 55.8937 60.8117 55.5079L63.3203 51.3944H70.7788L71.0231 51.052L73.2709 47.9136H80.8096L81.0438 47.4937L83.3023 43.504L89.5958 42.9827L89.7934 42.7777L93.8496 38.2664L93.7669 41.6653C93.729 42.1268 94.0661 42.529 94.5126 42.5691C94.9617 42.6049 95.3587 42.2628 95.3952 41.8013L95.683 36.1523C95.7034 35.8545 95.576 35.5688 95.3369 35.3989L95.3367 35.3988Z" fill="#264796"/>
<path fill-rule="evenodd" clip-rule="evenodd" d="M97.3187 12.0686C97.4015 12.3429 97.5226 12.5833 97.6802 12.7865C97.8411 12.988 98.019 13.1417 98.2229 13.2431C98.4238 13.3493 98.6425 13.3999 98.882 13.3999C99.1283 13.3999 99.3511 13.3494 99.5582 13.2431C99.7622 13.1416 99.9433 12.9847 100.095 12.7759C100.252 12.5698 100.373 12.3219 100.452 12.0324C100.529 11.7428 100.572 11.4116 100.572 11.0352C100.572 10.7949 100.553 10.5711 100.516 10.3635C100.48 10.1574 100.427 9.96316 100.359 9.78121C100.299 9.60793 100.217 9.45267 100.118 9.31119C100.016 9.1752 99.9021 9.05271 99.7743 8.95719C99.6386 8.85878 99.4973 8.78556 99.35 8.74234C99.2029 8.69458 99.0512 8.67077 98.8919 8.67077C98.6659 8.67077 98.4531 8.71523 98.249 8.80951C98.0476 8.90337 97.864 9.04376 97.7008 9.23494C97.5347 9.41978 97.408 9.67083 97.3234 9.98876C97.2368 10.3037 97.1946 10.6798 97.1946 11.1157C97.1946 11.4708 97.2356 11.7878 97.3188 12.0684L97.3187 12.0686ZM96.7003 9.80818C96.8099 9.42611 96.9747 9.10074 97.1946 8.82616C97.408 8.55419 97.6599 8.34526 97.9428 8.20804C98.2271 8.07054 98.5434 8.00049 98.8919 8.00049C99.1178 8.00049 99.3339 8.03187 99.5409 8.09903C99.7434 8.16331 99.9344 8.25869 100.112 8.38421C100.296 8.51538 100.458 8.67077 100.599 8.84997C100.739 9.0322 100.859 9.23507 100.955 9.46341C101.049 9.69794 101.118 9.94568 101.168 10.2084C101.216 10.4697 101.24 10.7489 101.24 11.0443C101.24 11.3368 101.216 11.6175 101.168 11.8817C101.118 12.1459 101.042 12.3965 100.937 12.6312C100.84 12.8653 100.719 13.0714 100.575 13.2475C100.433 13.4266 100.268 13.5761 100.086 13.7013C99.8953 13.8224 99.7011 13.9074 99.5029 13.9641C99.3046 14.0179 99.0975 14.0461 98.8819 14.0461C98.6569 14.0461 98.4384 14.0135 98.2311 13.9522C98.0214 13.8893 97.8247 13.794 97.6353 13.6613C97.4558 13.5254 97.2998 13.3669 97.1641 13.1879C97.0243 13.0072 96.9073 12.8027 96.8097 12.5729C96.7179 12.3398 96.648 12.1009 96.6042 11.8563C96.5578 11.6145 96.5343 11.3637 96.5343 11.1099C96.5343 10.6233 96.5897 10.1903 96.7002 9.80805L96.7003 9.80818Z" fill="#898989"/>
<path fill-rule="evenodd" clip-rule="evenodd" d="M104.323 13.3355C104.189 13.5685 104.026 13.7429 103.836 13.8624C103.647 13.9789 103.433 14.0372 103.195 14.0372C103.091 14.0372 102.987 14.0267 102.891 14.0058C102.795 13.9818 102.699 13.952 102.606 13.9131C102.515 13.8654 102.436 13.8101 102.369 13.7487C102.301 13.6845 102.247 13.6175 102.206 13.5458C102.163 13.4771 102.123 13.3966 102.089 13.3041C102.055 13.2145 102.029 13.1187 102.011 13.0144C101.999 12.9428 101.99 12.8501 101.985 12.7428C101.977 12.6293 101.975 12.495 101.975 12.3425V9.7168H102.58V12.0739C102.58 12.2591 102.583 12.4144 102.588 12.5427C102.597 12.6682 102.606 12.7607 102.618 12.8267C102.635 12.9189 102.667 13.0026 102.711 13.0803C102.752 13.1577 102.804 13.2235 102.866 13.2773C102.925 13.3311 102.995 13.3727 103.071 13.3996C103.148 13.4265 103.23 13.4401 103.314 13.4401C103.405 13.4401 103.495 13.4265 103.581 13.3967C103.668 13.364 103.749 13.3221 103.828 13.2685C103.913 13.2146 103.985 13.1491 104.04 13.0711C104.093 12.9965 104.138 12.9114 104.167 12.8174C104.198 12.7249 104.224 12.61 104.238 12.4713C104.259 12.3323 104.268 12.1726 104.268 11.9934V9.71693H104.874V13.955H104.323V13.3355H104.323Z" fill="#898989"/>
<path fill-rule="evenodd" clip-rule="evenodd" d="M105.809 9.71706H106.362V10.3634C106.426 10.2128 106.493 10.0861 106.551 9.98889C106.612 9.88869 106.675 9.81575 106.736 9.76661C106.796 9.7172 106.86 9.6799 106.924 9.65623C106.989 9.63379 107.059 9.61865 107.131 9.61865C107.228 9.61865 107.331 9.64109 107.433 9.68004C107.537 9.7216 107.642 9.78147 107.747 9.85593L107.544 10.5204C107.464 10.4696 107.388 10.4322 107.315 10.4054C107.242 10.3785 107.167 10.3638 107.093 10.3638C107.034 10.3635 106.972 10.3756 106.911 10.4025C106.848 10.4249 106.793 10.4592 106.746 10.5039C106.691 10.5517 106.643 10.6087 106.604 10.6757C106.563 10.7415 106.535 10.8159 106.516 10.8966C106.478 11.0264 106.454 11.1609 106.437 11.3011C106.423 11.4415 106.414 11.5877 106.414 11.74V13.9554H105.809V9.71734V9.71706Z" fill="#898989"/>
<path fill-rule="evenodd" clip-rule="evenodd" d="M110.058 8.10634H111.039L112.206 12.2534C112.252 12.4447 112.299 12.6131 112.341 12.758C112.383 12.9014 112.418 13.0209 112.443 13.1132C112.474 13.0028 112.509 12.8714 112.548 12.716C112.59 12.5608 112.64 12.3817 112.701 12.1802L113.873 8.1062H114.755V13.955H114.131V9.05272L112.701 13.955H112.115L110.68 8.9722V13.955H110.058V8.1062L110.058 8.10634Z" fill="#898989"/>
<path fill-rule="evenodd" clip-rule="evenodd" d="M115.728 9.71694H116.333V13.955H115.728V9.71694ZM115.728 8.1062H116.333V8.93352H115.728V8.1062Z" fill="#898989"/>
<path fill-rule="evenodd" clip-rule="evenodd" d="M117.599 12.5815C117.618 12.7219 117.652 12.8475 117.699 12.9578C117.749 13.0668 117.81 13.1595 117.885 13.2355C117.962 13.3116 118.058 13.3683 118.163 13.4072C118.268 13.4473 118.391 13.4654 118.528 13.4654C118.668 13.4654 118.79 13.4473 118.893 13.4147C118.997 13.3833 119.08 13.3312 119.14 13.2593C119.207 13.1968 119.26 13.1222 119.296 13.0444C119.334 12.9638 119.351 12.8773 119.351 12.7862C119.351 12.71 119.336 12.6414 119.306 12.5773C119.277 12.5159 119.229 12.4593 119.17 12.4084C119.126 12.377 119.053 12.3397 118.954 12.2982C118.85 12.2577 118.72 12.2145 118.554 12.1638C118.326 12.0921 118.137 12.0294 117.985 11.9725C117.831 11.9158 117.713 11.8621 117.627 11.8206C117.546 11.7698 117.475 11.7131 117.406 11.6441C117.338 11.5772 117.285 11.4993 117.241 11.4115C117.199 11.3232 117.166 11.2351 117.14 11.1426C117.115 11.0486 117.103 10.95 117.103 10.8469C117.103 10.7544 117.113 10.6621 117.131 10.5722C117.149 10.4826 117.177 10.3962 117.214 10.3155C117.25 10.2394 117.294 10.1665 117.347 10.1007C117.399 10.029 117.455 9.96924 117.518 9.91419C117.565 9.86945 117.622 9.83216 117.687 9.79926C117.752 9.76637 117.824 9.73664 117.902 9.7098C117.988 9.68282 118.071 9.66052 118.156 9.64401C118.236 9.62914 118.326 9.61841 118.424 9.61841C118.565 9.61841 118.698 9.63355 118.819 9.65598C118.942 9.67979 119.056 9.71695 119.159 9.76637C119.263 9.8155 119.356 9.87372 119.435 9.93345C119.513 9.99759 119.579 10.0693 119.627 10.1515C119.675 10.232 119.718 10.3276 119.755 10.4379C119.793 10.5454 119.817 10.6724 119.828 10.814L119.242 10.9039C119.236 10.7948 119.213 10.6977 119.172 10.6156C119.134 10.5278 119.08 10.4559 119.014 10.3963C118.951 10.338 118.875 10.2903 118.784 10.2592C118.691 10.2262 118.585 10.2083 118.462 10.2083C118.326 10.2082 118.21 10.2215 118.108 10.25C118.008 10.2769 117.93 10.3217 117.874 10.3784C117.813 10.4353 117.766 10.4918 117.738 10.5516C117.707 10.6113 117.691 10.68 117.691 10.7576C117.691 10.8052 117.696 10.8504 117.71 10.8919C117.723 10.9336 117.739 10.9726 117.765 11.0114C117.788 11.0487 117.819 11.0828 117.857 11.1157C117.892 11.1501 117.939 11.1785 117.994 11.2084C118.026 11.2175 118.085 11.2384 118.172 11.2681C118.262 11.2981 118.382 11.3366 118.535 11.3876C118.75 11.4593 118.931 11.5219 119.077 11.5756C119.222 11.6294 119.341 11.6787 119.426 11.7234C119.51 11.7607 119.586 11.8145 119.655 11.877C119.72 11.9428 119.779 12.0172 119.828 12.0978C119.878 12.1799 119.913 12.271 119.933 12.3725C119.956 12.4712 119.965 12.5858 119.965 12.7115C119.965 12.8325 119.954 12.9488 119.925 13.0607C119.897 13.1726 119.855 13.2832 119.793 13.3907C119.732 13.4938 119.659 13.5877 119.578 13.6682C119.495 13.7519 119.394 13.8221 119.279 13.8803C119.17 13.9308 119.051 13.9685 118.931 13.9952C118.807 14.0234 118.675 14.037 118.535 14.037C118.303 14.037 118.096 14.0113 117.921 13.9576C117.743 13.9071 117.593 13.8233 117.469 13.71C117.356 13.5952 117.257 13.4533 117.178 13.2849C117.098 13.1161 117.041 12.9188 117.003 12.695L117.599 12.5815H117.599Z" fill="#898989"/>
<path fill-rule="evenodd" clip-rule="evenodd" d="M121.042 12.5815C121.059 12.7219 121.091 12.8475 121.14 12.9578C121.19 13.0668 121.251 13.1595 121.326 13.2355C121.403 13.3116 121.497 13.3683 121.604 13.4072C121.712 13.4473 121.832 13.4654 121.967 13.4654C122.109 13.4654 122.228 13.4473 122.333 13.4147C122.435 13.3833 122.52 13.3312 122.581 13.2593C122.648 13.1968 122.701 13.1222 122.737 13.0444C122.775 12.9638 122.792 12.8773 122.792 12.7862C122.792 12.71 122.777 12.6414 122.748 12.5773C122.716 12.5159 122.672 12.4593 122.608 12.4084C122.567 12.377 122.496 12.3397 122.393 12.2982C122.293 12.2577 122.159 12.2145 121.994 12.1638C121.768 12.0921 121.578 12.0294 121.426 11.9725C121.272 11.9158 121.153 11.8621 121.067 11.8206C120.989 11.7698 120.913 11.7131 120.848 11.6441C120.779 11.5772 120.723 11.4993 120.68 11.4115C120.639 11.3232 120.606 11.2351 120.581 11.1426C120.556 11.0486 120.543 10.95 120.543 10.8469C120.543 10.7544 120.553 10.6621 120.572 10.5722C120.59 10.4826 120.619 10.3962 120.654 10.3155C120.692 10.2394 120.735 10.1665 120.788 10.1007C120.84 10.029 120.896 9.96924 120.958 9.91419C121.006 9.86945 121.062 9.83216 121.126 9.79926C121.191 9.76637 121.263 9.73664 121.342 9.7098C121.428 9.68282 121.511 9.66052 121.595 9.64401C121.677 9.62914 121.768 9.61841 121.865 9.61841C122.007 9.61841 122.138 9.63355 122.261 9.65598C122.383 9.67979 122.497 9.71695 122.599 9.76637C122.704 9.8155 122.794 9.87372 122.875 9.93345C122.955 9.99759 123.019 10.0693 123.068 10.1515C123.116 10.232 123.158 10.3276 123.196 10.4379C123.231 10.5454 123.258 10.6724 123.269 10.814L122.682 10.9039C122.677 10.7948 122.653 10.6977 122.614 10.6156C122.574 10.5278 122.52 10.4559 122.454 10.3963C122.392 10.338 122.314 10.2903 122.222 10.2592C122.132 10.2262 122.024 10.2083 121.902 10.2083C121.768 10.2082 121.65 10.2215 121.548 10.25C121.45 10.2769 121.37 10.3217 121.315 10.3784C121.253 10.4353 121.208 10.4918 121.178 10.5516C121.147 10.6113 121.131 10.68 121.131 10.7576C121.131 10.8052 121.138 10.8504 121.149 10.8919C121.162 10.9336 121.181 10.9726 121.205 11.0114C121.23 11.0487 121.26 11.0828 121.295 11.1157C121.333 11.1501 121.38 11.1785 121.435 11.2084C121.465 11.2175 121.525 11.2384 121.613 11.2681C121.702 11.2981 121.823 11.3366 121.976 11.3876C122.189 11.4593 122.371 11.5219 122.517 11.5756C122.664 11.6294 122.779 11.6787 122.865 11.7234C122.952 11.7607 123.027 11.8145 123.095 11.877C123.161 11.9428 123.221 12.0172 123.269 12.0978C123.317 12.1799 123.354 12.271 123.377 12.3725C123.394 12.4712 123.406 12.5858 123.406 12.7115C123.406 12.8325 123.394 12.9488 123.366 13.0607C123.337 13.1726 123.294 13.2832 123.231 13.3907C123.172 13.4938 123.1 13.5877 123.019 13.6682C122.934 13.7519 122.835 13.8221 122.719 13.8803C122.608 13.9308 122.494 13.9685 122.371 13.9952C122.249 14.0234 122.116 14.037 121.976 14.037C121.744 14.037 121.539 14.0113 121.361 13.9576C121.184 13.9071 121.036 13.8233 120.91 13.71C120.795 13.5952 120.697 13.4533 120.619 13.2849C120.539 13.1161 120.48 12.9188 120.442 12.695L121.042 12.5815H121.042Z" fill="#898989"/>
<path fill-rule="evenodd" clip-rule="evenodd" d="M124.132 9.71694H124.736V13.955H124.132V9.71694ZM124.132 8.1062H124.736V8.93352H124.132V8.1062Z" fill="#898989"/>
<path fill-rule="evenodd" clip-rule="evenodd" d="M126.123 12.549C126.172 12.749 126.244 12.9191 126.343 13.0566C126.448 13.1926 126.562 13.2941 126.687 13.3627C126.812 13.4299 126.953 13.4657 127.104 13.4657C127.253 13.4657 127.388 13.4299 127.512 13.3627C127.638 13.2941 127.75 13.1926 127.848 13.0566C127.953 12.9191 128.027 12.749 128.078 12.543C128.125 12.3325 128.151 12.0924 128.151 11.8148C128.151 11.5519 128.124 11.322 128.078 11.1251C128.027 10.9278 127.953 10.7606 127.848 10.6263C127.75 10.4891 127.638 10.389 127.512 10.3187C127.388 10.2533 127.252 10.2172 127.104 10.2172C126.953 10.2172 126.812 10.2501 126.687 10.3158C126.562 10.3785 126.448 10.4802 126.343 10.619C126.244 10.7548 126.173 10.9234 126.123 11.1251C126.073 11.3264 126.05 11.5638 126.05 11.8357C126.05 12.1087 126.073 12.3462 126.123 12.5492V12.549ZM125.565 10.8085C125.654 10.5188 125.792 10.2801 125.976 10.0947C126.129 9.93645 126.301 9.8174 126.489 9.73812C126.678 9.66063 126.884 9.61865 127.104 9.61865C127.348 9.61865 127.57 9.66779 127.768 9.76207C127.97 9.8591 128.148 10.0024 128.306 10.1936C128.466 10.3846 128.583 10.6114 128.658 10.8743C128.735 11.1401 128.774 11.4416 128.774 11.7787C128.774 12.052 128.754 12.2952 128.719 12.5072C128.681 12.7222 128.63 12.9058 128.562 13.0642C128.498 13.2239 128.413 13.3611 128.311 13.4804C128.21 13.6029 128.09 13.7046 127.958 13.7941C127.829 13.8805 127.693 13.9419 127.548 13.9792C127.407 14.0177 127.257 14.0374 127.104 14.0374C126.853 14.0374 126.627 13.9926 126.426 13.9042C126.223 13.8118 126.045 13.6716 125.891 13.4804C125.739 13.2894 125.624 13.0595 125.544 12.7865C125.465 12.5133 125.424 12.197 125.424 11.8355C125.424 11.4442 125.471 11.1026 125.564 10.8085H125.565Z" fill="#898989"/>
<path fill-rule="evenodd" clip-rule="evenodd" d="M129.472 9.71706H130.02V10.3233C130.155 10.089 130.318 9.91278 130.51 9.79496C130.699 9.68004 130.915 9.61865 131.159 9.61865C131.265 9.61865 131.366 9.63379 131.466 9.65623C131.568 9.68004 131.665 9.71568 131.755 9.75766C131.843 9.80226 131.918 9.85304 131.988 9.91443C132.058 9.97554 132.117 10.0428 132.16 10.1191C132.207 10.1905 132.245 10.2697 132.274 10.3609C132.302 10.4502 132.324 10.5458 132.343 10.6519C132.356 10.7219 132.365 10.8159 132.371 10.9338C132.376 11.0503 132.379 11.1907 132.379 11.3533V13.9553H131.772V11.3789C131.772 11.2309 131.767 11.1041 131.755 10.9951C131.743 10.8861 131.726 10.7952 131.699 10.7248C131.676 10.6487 131.643 10.5818 131.603 10.5248C131.564 10.4666 131.513 10.4158 131.455 10.3725C131.391 10.328 131.327 10.295 131.256 10.2726C131.186 10.2533 131.11 10.2413 131.032 10.2413C130.902 10.2413 130.781 10.2666 130.667 10.3158C130.555 10.3634 130.455 10.4383 130.361 10.5367C130.269 10.6354 130.199 10.7741 130.152 10.9577C130.102 11.1398 130.077 11.3666 130.077 11.6413V13.9551H129.472V9.71706H129.472Z" fill="#898989"/>
<path fill-rule="evenodd" clip-rule="evenodd" d="M133.473 13.137H134.159V13.9549H133.473V13.137Z" fill="#898989"/>
<path fill-rule="evenodd" clip-rule="evenodd" d="M134.914 13.137H135.6V13.9549H134.914V13.137Z" fill="#898989"/>
<path fill-rule="evenodd" clip-rule="evenodd" d="M136.354 13.137H137.042V13.9549H136.354V13.137Z" fill="#898989"/>
<path fill-rule="evenodd" clip-rule="evenodd" d="M140.789 11.4769L138.891 8.1062H139.687L140.661 9.8649C140.745 10.035 140.833 10.2022 140.918 10.3678C141.002 10.5337 141.086 10.6994 141.165 10.8621C141.233 10.7065 141.311 10.5411 141.403 10.3678C141.495 10.1978 141.594 10.0156 141.698 9.8232L142.651 8.1062H143.414L141.441 11.4769V13.955H140.789V11.4769Z" fill="#898989"/>
<path fill-rule="evenodd" clip-rule="evenodd" d="M143.753 12.549C143.802 12.749 143.875 12.9191 143.974 13.0566C144.076 13.1926 144.192 13.2941 144.318 13.3627C144.443 13.4299 144.583 13.4657 144.735 13.4657C144.882 13.4657 145.018 13.4299 145.143 13.3627C145.268 13.2941 145.379 13.1926 145.477 13.0566C145.582 12.9191 145.659 12.749 145.706 12.543C145.756 12.3325 145.782 12.0924 145.782 11.8148C145.782 11.5519 145.755 11.322 145.706 11.1251C145.659 10.9278 145.582 10.7606 145.477 10.6263C145.379 10.4891 145.268 10.389 145.143 10.3187C145.018 10.2533 144.882 10.2172 144.735 10.2172C144.583 10.2172 144.443 10.2501 144.318 10.3158C144.192 10.3785 144.076 10.4802 143.974 10.619C143.875 10.7548 143.802 10.9234 143.753 11.1251C143.706 11.3264 143.679 11.5638 143.679 11.8357C143.679 12.1087 143.706 12.3462 143.753 12.5492V12.549ZM143.193 10.8085C143.285 10.5188 143.423 10.2801 143.606 10.0947C143.76 9.93645 143.93 9.8174 144.119 9.73812C144.309 9.66063 144.513 9.61865 144.735 9.61865C144.98 9.61865 145.2 9.66779 145.4 9.76207C145.598 9.8591 145.777 10.0024 145.938 10.1936C146.096 10.3846 146.213 10.6114 146.289 10.8743C146.368 11.1401 146.404 11.4416 146.404 11.7787C146.404 12.052 146.385 12.2952 146.347 12.5072C146.31 12.7222 146.263 12.9058 146.193 13.0642C146.126 13.2239 146.041 13.3611 145.94 13.4804C145.84 13.6029 145.721 13.7046 145.589 13.7941C145.459 13.8805 145.324 13.9419 145.18 13.9792C145.035 14.0177 144.886 14.0374 144.735 14.0374C144.484 14.0374 144.256 13.9926 144.055 13.9042C143.854 13.8118 143.676 13.6716 143.523 13.4804C143.37 13.2894 143.253 13.0595 143.175 12.7865C143.094 12.5133 143.055 12.197 143.055 11.8355C143.055 11.4442 143.101 11.1026 143.192 10.8085H143.193Z" fill="#898989"/>
<path fill-rule="evenodd" clip-rule="evenodd" d="M149.44 13.3355C149.306 13.5685 149.145 13.7429 148.955 13.8624C148.765 13.9789 148.55 14.0372 148.313 14.0372C148.208 14.0372 148.109 14.0267 148.009 14.0058C147.912 13.9818 147.817 13.952 147.727 13.9131C147.634 13.8654 147.553 13.8101 147.488 13.7487C147.419 13.6845 147.366 13.6175 147.322 13.5458C147.278 13.4771 147.24 13.3966 147.208 13.3041C147.175 13.2145 147.148 13.1187 147.129 13.0144C147.117 12.9428 147.109 12.8501 147.102 12.7428C147.094 12.6293 147.093 12.495 147.093 12.3425V9.7168H147.698V12.0739C147.698 12.2591 147.701 12.4144 147.708 12.5427C147.714 12.6682 147.723 12.7607 147.736 12.8267C147.754 12.9189 147.784 13.0026 147.827 13.0803C147.869 13.1577 147.923 13.2235 147.984 13.2773C148.045 13.3311 148.112 13.3727 148.188 13.3996C148.265 13.4265 148.347 13.4401 148.433 13.4401C148.524 13.4401 148.612 13.4265 148.698 13.3967C148.785 13.364 148.867 13.3221 148.946 13.2685C149.03 13.2146 149.101 13.1491 149.156 13.0711C149.211 12.9965 149.255 12.9114 149.287 12.8174C149.316 12.7249 149.343 12.61 149.357 12.4713C149.377 12.3323 149.387 12.1726 149.387 11.9934V9.71693H149.993V13.955H149.44V13.3355H149.44Z" fill="#898989"/>
<path fill-rule="evenodd" clip-rule="evenodd" d="M150.929 9.71706H151.48V10.3634C151.545 10.2128 151.608 10.0861 151.672 9.98889C151.731 9.88869 151.792 9.81575 151.853 9.76661C151.914 9.7172 151.979 9.6799 152.044 9.65623C152.107 9.63379 152.174 9.61865 152.249 9.61865C152.346 9.61865 152.448 9.64109 152.55 9.68004C152.656 9.7216 152.76 9.78147 152.863 9.85593L152.66 10.5204C152.582 10.4696 152.506 10.4322 152.43 10.4054C152.357 10.3785 152.287 10.3638 152.212 10.3638C152.151 10.3635 152.09 10.3756 152.027 10.4025C151.967 10.4249 151.913 10.4592 151.862 10.5039C151.806 10.5517 151.76 10.6087 151.722 10.6757C151.68 10.7415 151.652 10.8159 151.634 10.8966C151.596 11.0264 151.57 11.1609 151.555 11.3011C151.541 11.4415 151.533 11.5877 151.533 11.74L151.533 13.9554H150.929V9.71734L150.929 9.71706Z" fill="#898989"/>
<path fill-rule="evenodd" clip-rule="evenodd" d="M157.506 10.977L159.589 10.9697V13.146C159.431 13.2982 159.268 13.4326 159.103 13.5461C158.937 13.6612 158.768 13.7582 158.596 13.8327C158.554 13.8506 158.512 13.8656 158.47 13.8833C158.426 13.8983 158.385 13.9117 158.341 13.9221C158.205 13.9609 158.073 13.9907 157.946 14.0134C157.818 14.0357 157.682 14.046 157.542 14.046C157.303 14.046 157.075 14.0148 156.854 13.9578C156.633 13.904 156.425 13.8131 156.23 13.6938C156.028 13.5684 155.854 13.4177 155.706 13.24C155.559 13.0625 155.437 12.8563 155.331 12.6205C155.233 12.3875 155.158 12.1398 155.104 11.877C155.053 11.6172 155.028 11.3439 155.028 11.059C155.028 10.7695 155.053 10.4932 155.104 10.2288C155.158 9.96457 155.233 9.70967 155.331 9.46317C155.437 9.21694 155.558 9.00209 155.697 8.81683C155.836 8.6335 156.003 8.47935 156.192 8.36002C156.384 8.24055 156.587 8.14944 156.803 8.08847C157.02 8.03025 157.254 8.00024 157.495 8.00024C157.674 8.00024 157.843 8.01649 158.006 8.05241C158.168 8.08847 158.322 8.14228 158.47 8.21372C158.61 8.27813 158.737 8.35878 158.85 8.45416C158.962 8.54817 159.058 8.66034 159.14 8.78421C159.225 8.90657 159.298 9.04696 159.359 9.20648C159.42 9.36765 159.472 9.54547 159.516 9.7427L158.927 9.93071C158.893 9.78124 158.85 9.65283 158.803 9.53322C158.758 9.41554 158.708 9.31397 158.653 9.22588C158.596 9.14523 158.531 9.07049 158.451 9.00195C158.37 8.93492 158.279 8.87037 158.175 8.81683C158.077 8.76893 157.972 8.73177 157.859 8.70796C157.747 8.68236 157.628 8.67066 157.506 8.67066C157.352 8.67066 157.213 8.68236 157.085 8.70796C156.956 8.73177 156.836 8.7721 156.726 8.82592C156.621 8.88111 156.525 8.94525 156.437 9.01544C156.349 9.08563 156.271 9.16312 156.203 9.25272C156.142 9.33929 156.083 9.42889 156.028 9.52455C155.973 9.61993 155.927 9.72453 155.892 9.83203C155.83 10.0169 155.782 10.2082 155.747 10.4051C155.717 10.6009 155.697 10.8025 155.697 11.0114C155.697 11.2725 155.717 11.5131 155.753 11.7293C155.789 11.9489 155.848 12.1459 155.927 12.319C156.002 12.4951 156.093 12.6475 156.203 12.7758C156.311 12.9084 156.443 13.0159 156.589 13.1042C156.728 13.1925 156.877 13.2565 157.035 13.2984C157.19 13.3388 157.345 13.3597 157.506 13.3597C157.647 13.3596 157.786 13.3432 157.924 13.309C158.061 13.2776 158.197 13.23 158.331 13.1701C158.473 13.1059 158.592 13.0358 158.694 12.9656C158.794 12.8955 158.881 12.8238 158.947 12.7535V11.6652H157.506V10.9771L157.506 10.977Z" fill="#898989"/>
<path fill-rule="evenodd" clip-rule="evenodd" d="M160.45 9.71706H161.001V10.3634C161.068 10.2128 161.134 10.0861 161.193 9.98889C161.255 9.88869 161.316 9.81575 161.377 9.76661C161.439 9.7172 161.501 9.6799 161.566 9.65623C161.631 9.63379 161.698 9.61865 161.772 9.61865C161.87 9.61865 161.972 9.64109 162.075 9.68004C162.178 9.7216 162.282 9.78147 162.386 9.85593L162.185 10.5204C162.106 10.4696 162.027 10.4322 161.955 10.4054C161.881 10.3785 161.809 10.3638 161.736 10.3638C161.674 10.3635 161.613 10.3756 161.552 10.4025C161.491 10.4249 161.436 10.4592 161.387 10.5039C161.332 10.5517 161.284 10.6087 161.243 10.6757C161.205 10.7415 161.176 10.8159 161.158 10.8966C161.119 11.0264 161.094 11.1609 161.08 11.3011C161.064 11.4415 161.055 11.5877 161.055 11.74V13.9554H160.45V9.71734L160.45 9.71706Z" fill="#898989"/>
<path fill-rule="evenodd" clip-rule="evenodd" d="M163.215 12.549C163.261 12.749 163.335 12.9191 163.432 13.0566C163.536 13.1926 163.652 13.2941 163.777 13.3627C163.902 13.4299 164.042 13.4657 164.194 13.4657C164.34 13.4657 164.477 13.4299 164.602 13.3627C164.728 13.2941 164.84 13.1926 164.938 13.0566C165.04 12.9191 165.118 12.749 165.165 12.543C165.215 12.3325 165.241 12.0924 165.241 11.8148C165.241 11.5519 165.215 11.322 165.165 11.1251C165.118 10.9278 165.04 10.7606 164.938 10.6263C164.84 10.4891 164.728 10.389 164.602 10.3187C164.477 10.2533 164.34 10.2172 164.194 10.2172C164.042 10.2172 163.902 10.2501 163.777 10.3158C163.652 10.3785 163.536 10.4802 163.432 10.619C163.335 10.7548 163.261 10.9234 163.214 11.1251C163.164 11.3264 163.138 11.5638 163.138 11.8357C163.138 12.1087 163.164 12.3462 163.215 12.5492V12.549ZM162.651 10.8085C162.744 10.5188 162.882 10.2801 163.067 10.0947C163.217 9.93645 163.389 9.8174 163.579 9.73812C163.768 9.66063 163.973 9.61865 164.194 9.61865C164.439 9.61865 164.66 9.66779 164.858 9.76207C165.057 9.8591 165.239 10.0024 165.395 10.1936C165.554 10.3846 165.673 10.6114 165.748 10.8743C165.826 11.1401 165.862 11.4416 165.862 11.7787C165.862 12.052 165.845 12.2952 165.809 12.5072C165.772 12.7222 165.719 12.9058 165.652 13.0642C165.585 13.2239 165.502 13.3611 165.401 13.4804C165.299 13.6029 165.181 13.7046 165.048 13.7941C164.92 13.8805 164.782 13.9419 164.638 13.9792C164.496 14.0177 164.346 14.0374 164.194 14.0374C163.943 14.0374 163.716 13.9926 163.514 13.9042C163.313 13.8118 163.135 13.6716 162.984 13.4804C162.829 13.2894 162.713 13.0595 162.634 12.7865C162.554 12.5133 162.516 12.197 162.516 11.8355C162.516 11.4442 162.561 11.1026 162.651 10.8085H162.651Z" fill="#898989"/>
<path fill-rule="evenodd" clip-rule="evenodd" d="M166.13 9.71704H166.754L167.332 12.1639L167.545 13.0804C167.545 13.0533 167.559 12.967 167.59 12.8237C167.617 12.6789 167.661 12.4715 167.717 12.2041L168.294 9.71718H168.909L169.452 12.1804L169.624 12.991L169.836 12.173L170.442 9.71718H171.029L169.921 13.9552H169.285L168.718 11.4204L168.578 10.6995L167.854 13.9552H167.221L166.13 9.71718L166.13 9.71704Z" fill="#898989"/>
<path fill-rule="evenodd" clip-rule="evenodd" d="M172.938 13.9551C172.852 13.9669 172.773 13.976 172.698 13.9851C172.626 13.9922 172.555 13.9954 172.487 13.9954C172.377 13.9954 172.281 13.9895 172.195 13.9729C172.11 13.9549 172.032 13.9282 171.966 13.8893C171.91 13.846 171.861 13.7998 171.817 13.7489C171.776 13.6952 171.741 13.6344 171.718 13.5625C171.693 13.4984 171.674 13.3936 171.662 13.2506C171.649 13.1103 171.645 12.9341 171.645 12.7221V10.2725H171.194V9.71714H171.645V8.67098L172.241 8.23633V9.71714H172.846V10.2725H172.241V12.7609C172.241 12.8653 172.243 12.9489 172.251 13.0146C172.254 13.0804 172.264 13.1281 172.277 13.155C172.289 13.182 172.304 13.2088 172.318 13.2325C172.333 13.2566 172.354 13.2773 172.377 13.2922C172.409 13.3087 172.44 13.3222 172.473 13.3312C172.508 13.3387 172.546 13.343 172.59 13.343C172.619 13.343 172.657 13.34 172.698 13.3356C172.741 13.3283 172.79 13.3222 172.846 13.3174L172.938 13.9551H172.938Z" fill="#898989"/>
<path fill-rule="evenodd" clip-rule="evenodd" d="M173.423 8.1062H174.028V10.208C174.169 10.0126 174.329 9.8649 174.511 9.76635C174.691 9.66918 174.888 9.6184 175.102 9.6184C175.238 9.6184 175.363 9.63643 175.474 9.66918C175.587 9.70043 175.692 9.74819 175.791 9.80792C175.889 9.86779 175.972 9.94225 176.039 10.0288C176.105 10.1155 176.162 10.2139 176.204 10.3231C176.252 10.4259 176.287 10.5605 176.31 10.7202C176.331 10.8798 176.342 11.0651 176.342 11.2725V13.955H175.736V11.2724C175.736 11.0921 175.719 10.9367 175.686 10.8052C175.652 10.6753 175.602 10.5678 175.535 10.4856C175.472 10.4051 175.394 10.3425 175.299 10.3037C175.206 10.2618 175.1 10.2411 174.984 10.2411C174.891 10.2411 174.803 10.2559 174.722 10.2826C174.639 10.3095 174.555 10.3501 174.47 10.4051C174.39 10.4589 174.322 10.5246 174.269 10.6008C174.214 10.6769 174.169 10.7605 174.138 10.853C174.103 10.9473 174.075 11.0592 174.056 11.1906C174.039 11.3218 174.028 11.4708 174.028 11.6412L174.028 13.955H173.423V8.1062Z" fill="#898989"/>
</svg>
