<svg width="32" height="32" viewBox="0 0 32 32" fill="none" xmlns="http://www.w3.org/2000/svg">
<path d="M16 14H18V16H16V14ZM20 14H22V16H20V14ZM24 14H26V16H24V14ZM16 18H18V20H16V18ZM20 18H22V20H20V18ZM24 18H26V20H24V18ZM16 22H18V24H16V22ZM20 22H22V24H20V22ZM24 22H26V24H24V22ZM16 10H26V12H16V10Z" fill="white"/>
<path d="M28 6H14V5C13.9995 4.46973 13.7886 3.96133 13.4136 3.58637C13.0387 3.21141 12.5303 3.00053 12 3H8C7.46973 3.00053 6.96133 3.21141 6.58637 3.58637C6.21141 3.96133 6.00053 4.46973 6 5V6H4C3.46973 6.00053 2.96133 6.21141 2.58637 6.58637C2.21141 6.96133 2.00053 7.46973 2 8V26C2.00053 26.5303 2.21141 27.0387 2.58637 27.4136C2.96133 27.7886 3.46973 27.9995 4 28H28C28.5303 27.9995 29.0387 27.7886 29.4136 27.4136C29.7886 27.0387 29.9995 26.5303 30 26V8C29.9995 7.46973 29.7886 6.96133 29.4136 6.58637C29.0387 6.21141 28.5303 6.00053 28 6ZM8 5H12V22H8V5ZM28 26H4V8H6V22C6.00053 22.5303 6.21141 23.0387 6.58637 23.4136C6.96133 23.7886 7.46973 23.9995 8 24H12C12.5303 23.9995 13.0387 23.7886 13.4136 23.4136C13.7886 23.0387 13.9995 22.5303 14 22V8H28V26Z" fill="white"/>
</svg>
