<svg xmlns="http://www.w3.org/2000/svg" width="27.6" height="34" viewBox="0 0 27.6 34">
  <g id="clipboard-x" transform="translate(1 1)">
    <path id="clipboard-x-2" data-name="clipboard-x" d="M23.2,5.2a12.029,12.029,0,0,1,2.842.164,4.8,4.8,0,0,1,3.394,3.394A12.031,12.031,0,0,1,29.6,11.6V26.32c0,2.688,0,4.032-.523,5.059a4.8,4.8,0,0,1-2.1,2.1C25.952,34,24.608,34,21.92,34H11.68c-2.688,0-4.032,0-5.059-.523a4.8,4.8,0,0,1-2.1-2.1C4,30.352,4,29.008,4,26.32V11.6a12.029,12.029,0,0,1,.164-2.842A4.8,4.8,0,0,1,7.558,5.364,12.029,12.029,0,0,1,10.4,5.2M12.8,18l8,8m0-8-8,8m.16-17.6h7.68a3.975,3.975,0,0,0,1.686-.174,1.6,1.6,0,0,0,.7-.7A3.975,3.975,0,0,0,23.2,5.84V4.56a3.975,3.975,0,0,0-.174-1.686,1.6,1.6,0,0,0-.7-.7A3.975,3.975,0,0,0,20.64,2H12.96a3.975,3.975,0,0,0-1.686.174,1.6,1.6,0,0,0-.7.7A3.975,3.975,0,0,0,10.4,4.56V5.84a3.975,3.975,0,0,0,.174,1.686,1.6,1.6,0,0,0,.7.7A3.975,3.975,0,0,0,12.96,8.4Z" transform="translate(-4 -2)" fill="none" stroke="#92fff7" stroke-linecap="round" stroke-linejoin="round" stroke-width="2"/>
  </g>
</svg>
