<svg width="50" height="37" viewBox="0 0 50 37" fill="none" xmlns="http://www.w3.org/2000/svg">
<path d="M45.3201 25.3992C44.999 27.3303 43.863 29.2514 42.3381 30.4424C41.3 31.2532 40.1364 31.6468 38.8748 31.9043C36.616 32.3649 34.0827 31.4231 32.4185 29.9071C31.1105 28.7156 29.1419 26.021 29.1419 26.021L26.4717 29.4007C29.1605 34.1467 33.7782 37.6029 39.4842 36.5675C45.1903 35.5321 49.5543 30.795 49.8604 25.4782C50.0829 21.6146 48.6947 17.6552 45.4816 15.3441C40.9778 12.1059 35.0527 11.7909 30.3797 14.809C27.3084 16.7926 25.6619 20.1792 23.6296 23.1244C23.6296 23.1244 23.0395 23.9685 22.7172 23.6978C22.2428 23.2992 22.6971 22.3731 22.9403 21.9485C23.5327 20.9145 24.2821 19.9825 24.8858 18.9562L24.8252 18.8689C23.5909 17.0911 22.3376 15.2858 20.4865 14.0965C18.349 12.7232 16.339 12.2546 13.5418 12.3289C11.4809 12.3837 9.63508 12.9256 7.8169 13.8847L8.90034 6.47349C8.90034 6.47349 18.8695 6.34823 23.8371 6.33475L23.7773 0.589844L3.74035 0.59119L1.19424 20.0921L7.50261 20.4136C7.50261 20.4136 8.83389 18.4812 11.0287 18.0348C11.7085 17.8965 12.8413 17.8833 13.5756 18.0051C14.494 18.1575 15.6577 18.7905 16.215 19.4406C17.0102 20.3683 17.3831 21.1042 17.7265 22.4228C17.9571 23.3083 17.9786 25.5516 17.7646 26.4028C17.2268 28.542 16.2733 29.8705 14.7222 30.6422C13.9141 31.0443 12.8701 31.2794 11.6741 31.1291C9.21625 30.8202 8.00995 29.0143 6.97159 26.8641C6.97159 26.8641 2.16236 26.3874 0.745167 26.171C0.0874615 31.4304 4.81453 35.6721 9.39476 36.4926C14.9187 37.4825 20.0596 36.7064 24.118 30.5898C27.5306 26.021 29.0631 21.3748 32.6608 18.5708C34.3814 17.2297 35.8512 16.749 37.9796 16.8313C39.2766 16.8815 39.6873 16.9618 40.6997 17.3636C43.1531 18.3371 44.8937 20.4779 45.3274 23.0553C45.472 23.9145 45.4702 24.4972 45.3201 25.3992Z" fill="#24FEEE"/>
</svg>
