<svg width="32" height="32" viewBox="0 0 32 32" fill="none" xmlns="http://www.w3.org/2000/svg">
<path d="M19 18C19.7956 18 20.5587 18.3161 21.1213 18.8787C21.6839 19.4413 22 20.2044 22 21V22C22 25.942 18.28 30 12 30C5.72 30 2 25.942 2 22V21C2 20.2044 2.31607 19.4413 2.87868 18.8787C3.44129 18.3161 4.20435 18 5 18H19ZM19 20H5C4.73478 20 4.48043 20.1054 4.29289 20.2929C4.10536 20.4805 4 20.7348 4 21V22C4 24.876 6.864 28 12 28C17.136 28 20 24.876 20 22V21C20 20.7348 19.8946 20.4805 19.7071 20.2929C19.5196 20.1054 19.2652 20 19 20ZM12 5.00004C13.4587 5.00004 14.8576 5.57951 15.8891 6.61096C16.9205 7.64241 17.5 9.04135 17.5 10.5C17.5 11.9587 16.9205 13.3577 15.8891 14.3891C14.8576 15.4206 13.4587 16 12 16C10.5413 16 9.14236 15.4206 8.11091 14.3891C7.07946 13.3577 6.5 11.9587 6.5 10.5C6.5 9.04135 7.07946 7.64241 8.11091 6.61096C9.14236 5.57951 10.5413 5.00004 12 5.00004ZM12 7.00004C11.0717 7.00004 10.1815 7.36879 9.52513 8.02517C8.86875 8.68155 8.5 9.57178 8.5 10.5C8.5 11.4283 8.86875 12.3185 9.52513 12.9749C10.1815 13.6313 11.0717 14 12 14C12.9283 14 13.8185 13.6313 14.4749 12.9749C15.1313 12.3185 15.5 11.4283 15.5 10.5C15.5 9.57178 15.1313 8.68155 14.4749 8.02517C13.8185 7.36879 12.9283 7.00004 12 7.00004ZM21.568 2.17804L21.708 2.29204L25 5.58604L28.292 2.29204C28.4798 2.10427 28.7344 1.99878 29 1.99878C29.2656 1.99878 29.5202 2.10427 29.708 2.29204C29.8958 2.47982 30.0013 2.73449 30.0013 3.00004C30.0013 3.26559 29.8958 3.52027 29.708 3.70804L26.414 7.00004L29.708 10.292C29.8734 10.4578 29.9753 10.6762 29.9962 10.9094C30.017 11.1426 29.9554 11.3756 29.822 11.568L29.708 11.708C29.5423 11.8734 29.3238 11.9754 29.0907 11.9962C28.8575 12.017 28.6244 11.9554 28.432 11.822L28.292 11.708L25 8.41404L21.708 11.708C21.5202 11.8958 21.2656 12.0013 21 12.0013C20.7344 12.0013 20.4798 11.8958 20.292 11.708C20.1042 11.5203 19.9987 11.2656 19.9987 11C19.9987 10.7345 20.1042 10.4798 20.292 10.292L23.586 7.00004L20.292 3.70804C20.1266 3.54233 20.0247 3.32386 20.0038 3.09069C19.983 2.85753 20.0446 2.62444 20.178 2.43204L20.292 2.29204C20.4366 2.148 20.6217 2.05163 20.8227 2.01588C21.0236 1.98013 21.2306 2.00671 21.416 2.09204L21.568 2.17804Z" fill="white"/>
</svg>
