<svg width="256" height="50" viewBox="0 0 256 50" fill="none" xmlns="http://www.w3.org/2000/svg">
<path d="M86.0286 40.3411H79.9181L67.361 24.7003V40.3411H62.7144V9.43457H67.361V24.626L79.2815 9.43457H84.9431L72.7997 24.3995L86.0286 40.3411Z" fill="#2057A6"/>
<path d="M88.6138 40.3411V9.43457H107.395V13.7482H93.2639V23.8014H105.673V28.0762H93.2639V40.3411H88.6138Z" fill="#2057A6"/>
<path d="M111.517 40.3411V9.43457H116.164V40.3411H111.517Z" fill="#2057A6"/>
<path d="M122.088 40.3409V8.79395L143.528 30.5106C143.502 28.9359 143.478 27.4143 143.453 25.9528C143.428 24.4914 143.414 22.9202 143.414 21.2465V9.43444H147.952V41.1301L126.547 19.3356C126.571 20.9103 126.596 22.4567 126.621 23.9677C126.645 25.4822 126.66 27.025 126.66 28.5997V40.3409H122.088Z" fill="#2057A6"/>
<path d="M160.357 40.3411V13.7482H151.435V9.43457H173.999V13.7482H165.042V40.3411H160.357Z" fill="#2057A6"/>
<path d="M177.49 40.3411V9.43457H196.306V13.7092H182.21V22.4851H193.944V26.6854H182.21V36.0628H196.867V40.3411H177.49Z" fill="#2057A6"/>
<path d="M215.196 40.9427C212.897 40.9427 210.741 40.5287 208.733 39.7042C206.719 38.8796 204.966 37.7473 203.467 36.3106C201.968 34.8739 200.786 33.1789 199.923 31.2292C199.06 29.2793 198.629 27.1667 198.629 24.8914C198.629 22.6161 199.06 20.5035 199.923 18.5537C200.786 16.6039 201.968 14.9089 203.467 13.4721C204.966 12.0355 206.719 10.9102 208.733 10.0963C210.744 9.28242 212.912 8.87549 215.236 8.87549C217.435 8.87549 219.383 9.17626 221.085 9.7743C222.782 10.3759 224.171 11.0376 225.246 11.7631V17.0887C224.645 16.5154 223.959 15.9811 223.185 15.4963C222.41 15.008 221.586 14.5904 220.709 14.2401C219.836 13.8898 218.93 13.6208 217.989 13.4333C217.053 13.2457 216.122 13.1537 215.196 13.1537C213.496 13.1537 211.929 13.4545 210.494 14.0525C209.058 14.6541 207.819 15.4856 206.784 16.5472C205.747 17.6088 204.934 18.8544 204.347 20.2805C203.76 21.7067 203.467 23.2424 203.467 24.8949C203.467 26.5475 203.76 28.0832 204.347 29.5093C204.934 30.9354 205.747 32.1774 206.784 33.2427C207.819 34.3043 209.058 35.1358 210.494 35.7374C211.929 36.3389 213.498 36.6362 215.196 36.6362C217.095 36.6362 218.938 36.2753 220.727 35.5498C222.513 34.8244 224.019 33.8866 225.243 32.7365V38.0622C224.118 38.7876 222.715 39.4494 221.028 40.0509C219.337 40.6419 217.396 40.9427 215.196 40.9427Z" fill="#2057A6"/>
<path d="M230.415 40.3411V9.43457H235.063V22.4496H250.243V9.43457H254.89V40.3411H250.243V26.7244H235.063V40.3411H230.415Z" fill="#2057A6"/>
<path d="M48.7886 47.691L57.516 46.9868L58.0359 47.5636C58.2621 47.8148 58.0712 48.2112 57.7353 48.1935L48.7886 47.691Z" fill="url(#paint0_linear_110_3038)"/>
<path d="M23.6251 1.13281L29.6367 7.10251L21.4115 36.2503L13.3347 38.5115L23.6251 1.13281Z" fill="url(#paint1_linear_110_3038)"/>
<path d="M1.85216 49.7257L3.71929 41.2118L33.7206 32.7898L40.2308 39.23L1.85216 49.7257Z" fill="url(#paint2_linear_110_3038)"/>
<path d="M27.2777 15.5637L57.5124 46.9904L48.7886 47.6911L24.8484 24.0176L27.2777 15.5637Z" fill="url(#paint3_linear_110_3038)"/>
<path opacity="0.25" d="M3.71983 41.2118L33.7211 32.7898L40.2313 39.23L3.71983 41.2118Z" fill="url(#paint4_linear_110_3038)"/>
<path opacity="0.25" d="M23.6251 1.13281L21.4115 36.2503L13.3347 38.5115L23.6251 1.13281Z" fill="url(#paint5_linear_110_3038)"/>
<path opacity="0.25" d="M27.2777 15.5637L48.7886 47.6911L24.8484 24.0176L27.2777 15.5637Z" fill="url(#paint6_linear_110_3038)"/>
<path d="M29.6366 7.10261L24.4879 0.152714C24.2969 -0.105607 23.8903 -0.02068 23.8161 0.290727L23.6216 1.12938L29.6366 7.10261Z" fill="url(#paint7_linear_110_3038)"/>
<path d="M3.71959 41.2114L1.85246 49.7253L1.09218 49.9802C0.791597 50.0793 0.5087 49.7856 0.618324 49.4883L3.71959 41.2114Z" fill="url(#paint8_linear_110_3038)"/>
<path d="M64.5213 43.8655V45.0722H66.4663V46.1939H64.5213V47.5032H66.7209V48.6674H63.0714V42.7048H66.7209V43.869H64.5213V43.8655Z" fill="white"/>
<path d="M73.8569 48.664L72.644 46.8381L71.5761 48.664H69.9281L71.8377 45.6314L69.8858 42.7014H71.5761L72.7713 44.5026L73.8251 42.7014H75.4731L73.5811 45.7093L75.5508 48.664H73.8569Z" fill="white"/>
<path d="M83.1256 45.5712C82.9665 45.8578 82.7225 46.0878 82.3972 46.2648C82.0683 46.4416 81.6616 46.5266 81.1736 46.5266H80.2755V48.6674H78.8256V42.7048H81.1773C81.6511 42.7048 82.0542 42.7863 82.383 42.9525C82.7119 43.1153 82.9559 43.3418 83.1221 43.632C83.2883 43.9221 83.3697 44.2513 83.3697 44.6263C83.3626 44.9696 83.2812 45.2845 83.1256 45.5712ZM81.6829 45.1748C81.8172 45.044 81.888 44.8599 81.888 44.6228C81.888 44.3858 81.8208 44.2017 81.6829 44.0707C81.5485 43.9399 81.3399 43.8761 81.064 43.8761H80.2755V45.3695H81.064C81.3399 45.3695 81.545 45.3058 81.6829 45.1748Z" fill="white"/>
<path d="M88.1151 43.8655V45.0722H90.06V46.1939H88.1151V47.5032H90.3146V48.6674H86.6652V42.7048H90.3146V43.869H88.1151V43.8655Z" fill="white"/>
<path d="M96.8386 48.664L95.6009 46.4135H95.2543V48.664H93.8045V42.7014H96.241C96.7113 42.7014 97.1109 42.7829 97.4433 42.9491C97.7757 43.1154 98.0232 43.3384 98.1859 43.625C98.3486 43.9116 98.4334 44.2301 98.4334 44.5804C98.4334 44.9768 98.3203 45.3306 98.0975 45.642C97.8747 45.9535 97.5459 46.1728 97.1074 46.3038L98.4829 48.664H96.8386ZM95.2508 45.3872H96.149C96.4142 45.3872 96.6158 45.3236 96.7467 45.1927C96.881 45.0617 96.9447 44.8777 96.9447 44.6407C96.9447 44.4141 96.8774 44.2373 96.7467 44.1063C96.6123 43.9753 96.4142 43.9116 96.149 43.9116H95.2508V45.3872Z" fill="white"/>
<path d="M103.332 42.7048V48.6674H101.882V42.7048H103.332Z" fill="white"/>
<path d="M108.381 43.8655V45.0722H110.326V46.1939H108.381V47.5032H110.581V48.6674H106.932V42.7048H110.581V43.869H108.381V43.8655Z" fill="white"/>
<path d="M119.397 48.664H117.947L115.521 44.9873V48.664H114.071V42.7014H115.521L117.947 46.3957V42.7014H119.397V48.664Z" fill="white"/>
<path d="M123.131 44.0993C123.385 43.6393 123.739 43.2783 124.195 43.0199C124.651 42.7616 125.168 42.6343 125.745 42.6343C126.451 42.6343 127.056 42.8219 127.561 43.1934C128.064 43.5684 128.403 44.078 128.573 44.722H126.978C126.858 44.4743 126.692 44.2833 126.473 44.1523C126.254 44.0214 126.005 43.9577 125.729 43.9577C125.284 43.9577 124.92 44.1134 124.644 44.4248C124.369 44.7361 124.227 45.1538 124.227 45.6739C124.227 46.1941 124.365 46.6117 124.644 46.9231C124.92 47.2345 125.284 47.3902 125.729 47.3902C126.005 47.3902 126.254 47.3265 126.473 47.1955C126.692 47.0647 126.858 46.8771 126.978 46.6258H128.573C128.403 47.2699 128.068 47.7795 127.561 48.151C127.06 48.5226 126.451 48.7065 125.745 48.7065C125.168 48.7065 124.651 48.5792 124.195 48.3209C123.739 48.0625 123.385 47.7051 123.131 47.2451C122.876 46.7851 122.749 46.2614 122.749 45.6739C122.749 45.0865 122.876 44.5628 123.131 44.0993Z" fill="white"/>
<path d="M133.46 43.8655V45.0722H135.405V46.1939H133.46V47.5032H135.659V48.6674H132.011V42.7048H135.659V43.869H133.46V43.8655Z" fill="white"/>
<path d="M147.778 42.7048V43.869H146.201V48.6674H144.751V43.869H143.174V42.7048H147.778Z" fill="white"/>
<path d="M154.091 48.664L152.852 46.4135H152.506V48.664H151.056V42.7014H153.492C153.963 42.7014 154.363 42.7829 154.695 42.9491C155.028 43.1154 155.275 43.3384 155.437 43.625C155.6 43.9116 155.686 44.2301 155.686 44.5804C155.686 44.9768 155.572 45.3306 155.349 45.642C155.126 45.9535 154.797 46.1728 154.359 46.3038L155.735 48.664H154.091ZM152.502 45.3872H153.4C153.666 45.3872 153.868 45.3236 153.999 45.1927C154.132 45.0617 154.196 44.8777 154.196 44.6407C154.196 44.4141 154.13 44.2373 153.999 44.1063C153.864 43.9753 153.666 43.9116 153.4 43.9116H152.502V45.3872Z" fill="white"/>
<path d="M162.842 47.613H160.618L160.261 48.6674H158.741L160.897 42.7048H162.577L164.735 48.6674H163.2L162.842 47.613ZM162.467 46.4912L161.729 44.3079L161.001 46.4912H162.467Z" fill="white"/>
<path d="M173.264 48.664H171.814L169.389 44.9873V48.664H167.939V42.7014H169.389L171.814 46.3957V42.7014H173.264V48.664Z" fill="white"/>
<path d="M177.846 48.5119C177.5 48.3704 177.224 48.1615 177.019 47.882C176.815 47.606 176.705 47.2699 176.694 46.8806H178.239C178.261 47.0999 178.338 47.2699 178.469 47.3866C178.6 47.5033 178.77 47.5599 178.978 47.5599C179.194 47.5599 179.363 47.5104 179.488 47.4113C179.611 47.3124 179.674 47.1743 179.674 47.0008C179.674 46.8522 179.625 46.732 179.527 46.6364C179.427 46.5408 179.306 46.4595 179.162 46.3993C179.017 46.3356 178.811 46.2649 178.547 46.187C178.161 46.0667 177.846 45.95 177.606 45.8296C177.363 45.7093 177.153 45.5359 176.977 45.3024C176.799 45.0688 176.715 44.768 176.715 44.393C176.715 43.8374 176.917 43.4021 177.316 43.0907C177.719 42.7758 178.243 42.6201 178.886 42.6201C179.545 42.6201 180.071 42.7758 180.474 43.0907C180.877 43.4056 181.089 43.8409 181.118 44.4035H179.547C179.537 44.2124 179.466 44.0603 179.335 43.9506C179.204 43.8409 179.038 43.7843 178.833 43.7843C178.656 43.7843 178.515 43.8303 178.408 43.9258C178.302 44.0178 178.246 44.1523 178.246 44.3292C178.246 44.5203 178.338 44.6724 178.519 44.7786C178.699 44.8847 178.981 45.0016 179.367 45.1254C179.752 45.2564 180.064 45.3802 180.304 45.5006C180.545 45.6208 180.754 45.7906 180.927 46.0172C181.1 46.2436 181.189 46.5338 181.189 46.8912C181.189 47.2309 181.103 47.5388 180.93 47.8184C180.756 48.0943 180.506 48.3172 180.181 48.4801C179.852 48.6428 179.466 48.7278 179.017 48.7278C178.582 48.7243 178.189 48.6534 177.846 48.5119Z" fill="white"/>
<path d="M188.506 42.7048V43.869H186.079V45.1253H187.897V46.2542H186.079V48.6674H184.629V42.7048H188.506Z" fill="white"/>
<path d="M193.091 48.3351C192.625 48.0733 192.253 47.7122 191.981 47.2452C191.705 46.7781 191.57 46.2544 191.57 45.6705C191.57 45.0866 191.709 44.5629 191.981 44.0994C192.257 43.6358 192.625 43.2712 193.091 43.0129C193.558 42.7511 194.071 42.6238 194.633 42.6238C195.195 42.6238 195.707 42.7546 196.175 43.0129C196.641 43.2712 197.009 43.6358 197.278 44.0994C197.547 44.5629 197.681 45.0866 197.681 45.6705C197.681 46.2544 197.547 46.7781 197.274 47.2452C197.002 47.7122 196.634 48.0768 196.171 48.3351C195.707 48.597 195.195 48.7244 194.636 48.7244C194.077 48.7244 193.558 48.5934 193.091 48.3351ZM195.775 46.9232C196.061 46.6048 196.202 46.1871 196.202 45.667C196.202 45.1396 196.061 44.7186 195.775 44.4072C195.488 44.0923 195.11 43.9366 194.633 43.9366C194.151 43.9366 193.77 44.0923 193.484 44.4037C193.197 44.7151 193.055 45.1361 193.055 45.6705C193.055 46.1977 193.197 46.6189 193.484 46.9303C193.77 47.2452 194.151 47.4009 194.633 47.4009C195.106 47.4009 195.488 47.2416 195.775 46.9232Z" fill="white"/>
<path d="M204.072 48.664L202.834 46.4135H202.487V48.664H201.038V42.7014H203.474C203.944 42.7014 204.344 42.7829 204.676 42.9491C205.009 43.1154 205.256 43.3384 205.418 43.625C205.582 43.9116 205.666 44.2301 205.666 44.5804C205.666 44.9768 205.553 45.3306 205.33 45.642C205.107 45.9535 204.778 46.1728 204.34 46.3038L205.716 48.664H204.072ZM202.484 45.3872H203.382C203.647 45.3872 203.849 45.3236 203.98 45.1927C204.114 45.0617 204.177 44.8777 204.177 44.6407C204.177 44.4141 204.111 44.2373 203.98 44.1063C203.845 43.9753 203.647 43.9116 203.382 43.9116H202.484V45.3872Z" fill="white"/>
<path d="M215.858 42.7048V48.6674H214.408V45.0935L213.075 48.6674H211.904L210.564 45.0828V48.6674H209.114V42.7048H210.828L212.501 46.8309L214.157 42.7048H215.858Z" fill="white"/>
<path d="M223.156 47.613H220.932L220.574 48.6674H219.054L221.212 42.7048H222.891L225.048 48.6674H223.513L223.156 47.613ZM222.785 46.4912L222.046 44.3079L221.318 46.4912H222.785Z" fill="white"/>
<path d="M232.535 42.7048V43.869H230.957V48.6674H229.507V43.869H227.93V42.7048H232.535Z" fill="white"/>
<path d="M237.263 42.7048V48.6674H235.813V42.7048H237.263Z" fill="white"/>
<path d="M242.139 48.3351C241.672 48.0733 241.3 47.7122 241.028 47.2452C240.752 46.7781 240.619 46.2544 240.619 45.6705C240.619 45.0866 240.756 44.5629 241.028 44.0994C241.304 43.6358 241.672 43.2712 242.139 43.0129C242.605 42.7511 243.118 42.6238 243.68 42.6238C244.243 42.6238 244.756 42.7546 245.222 43.0129C245.689 43.2712 246.057 43.6358 246.325 44.0994C246.594 44.5629 246.729 45.0866 246.729 45.6705C246.729 46.2544 246.594 46.7781 246.322 47.2452C246.05 47.7122 245.682 48.0768 245.219 48.3351C244.756 48.597 244.243 48.7244 243.684 48.7244C243.126 48.7244 242.605 48.5934 242.139 48.3351ZM244.819 46.9232C245.106 46.6048 245.247 46.1871 245.247 45.667C245.247 45.1396 245.106 44.7186 244.819 44.4072C244.533 44.0923 244.155 43.9366 243.677 43.9366C243.196 43.9366 242.814 44.0923 242.527 44.4037C242.241 44.7151 242.1 45.1361 242.1 45.6705C242.1 46.1977 242.241 46.6189 242.527 46.9303C242.814 47.2452 243.196 47.4009 243.677 47.4009C244.155 47.4009 244.537 47.2416 244.819 46.9232Z" fill="white"/>
<path d="M255.406 48.664H253.957L251.531 44.9873V48.664H250.081V42.7014H251.531L253.957 46.3957V42.7014H255.406V48.664Z" fill="white"/>
<defs>
<linearGradient id="paint0_linear_110_3038" x1="48.787" y1="47.5926" x2="58.1306" y2="47.5926" gradientUnits="userSpaceOnUse">
<stop stop-color="#0FD4D8"/>
<stop offset="0.2878" stop-color="#09B0B9"/>
<stop offset="0.566" stop-color="#0495A1"/>
<stop offset="0.8119" stop-color="#018593"/>
<stop offset="1" stop-color="#007F8E"/>
</linearGradient>
<linearGradient id="paint1_linear_110_3038" x1="26.7803" y1="4.94875" x2="16.8849" y2="36.8126" gradientUnits="userSpaceOnUse">
<stop stop-color="#139FCE" stop-opacity="0.9"/>
<stop offset="0.3219" stop-color="#139CCB" stop-opacity="0.9322"/>
<stop offset="0.5804" stop-color="#1293C1" stop-opacity="0.958"/>
<stop offset="0.8161" stop-color="#1083B0" stop-opacity="0.9816"/>
<stop offset="1" stop-color="#0E719D"/>
</linearGradient>
<linearGradient id="paint2_linear_110_3038" x1="0.85859" y1="46.2414" x2="38.3477" y2="35.5663" gradientUnits="userSpaceOnUse">
<stop stop-color="#337FC9"/>
<stop offset="0.3501" stop-color="#317CC6"/>
<stop offset="0.6313" stop-color="#2D72BD"/>
<stop offset="0.8877" stop-color="#2561AF"/>
<stop offset="1" stop-color="#2057A6"/>
</linearGradient>
<linearGradient id="paint3_linear_110_3038" x1="54.4331" y1="48.1793" x2="27.3008" y2="21.0657" gradientUnits="userSpaceOnUse">
<stop stop-color="#0FD4D8"/>
<stop offset="0.2561" stop-color="#0ED1D5"/>
<stop offset="0.4617" stop-color="#0DC7CC"/>
<stop offset="0.6499" stop-color="#0AB6BE"/>
<stop offset="0.8265" stop-color="#069EA9"/>
<stop offset="0.9955" stop-color="#00808F"/>
<stop offset="1" stop-color="#007F8E"/>
</linearGradient>
<linearGradient id="paint4_linear_110_3038" x1="2.43442" y1="45.616" x2="37.0482" y2="36.0023" gradientUnits="userSpaceOnUse">
<stop stop-color="#337FC9"/>
<stop offset="0.3003" stop-color="#3079C4"/>
<stop offset="0.6923" stop-color="#2869B6"/>
<stop offset="1" stop-color="#2057A6"/>
</linearGradient>
<linearGradient id="paint5_linear_110_3038" x1="26.1941" y1="3.0083" x2="17.3193" y2="37.5417" gradientUnits="userSpaceOnUse">
<stop stop-color="#139FCE" stop-opacity="0.9"/>
<stop offset="0.2648" stop-color="#129AC8" stop-opacity="0.9265"/>
<stop offset="0.6111" stop-color="#118AB8" stop-opacity="0.9611"/>
<stop offset="1" stop-color="#0E719D"/>
</linearGradient>
<linearGradient id="paint6_linear_110_3038" x1="54.408" y1="47.2393" x2="26.4751" y2="20.6458" gradientUnits="userSpaceOnUse">
<stop stop-color="#0FD4D8"/>
<stop offset="0.1881" stop-color="#0ECED3"/>
<stop offset="0.434" stop-color="#0BBEC5"/>
<stop offset="0.7122" stop-color="#06A3AD"/>
<stop offset="1" stop-color="#007F8E"/>
</linearGradient>
<linearGradient id="paint7_linear_110_3038" x1="24.0275" y1="0.60803" x2="29.6891" y2="7.06962" gradientUnits="userSpaceOnUse">
<stop stop-color="#0E719D"/>
<stop offset="0.3889" stop-color="#118AB8" stop-opacity="0.9611"/>
<stop offset="0.7352" stop-color="#129AC8" stop-opacity="0.9265"/>
<stop offset="1" stop-color="#139FCE" stop-opacity="0.9"/>
</linearGradient>
<linearGradient id="paint8_linear_110_3038" x1="0.595514" y1="45.605" x2="3.71842" y2="45.605" gradientUnits="userSpaceOnUse">
<stop stop-color="#337FC9"/>
<stop offset="0.3077" stop-color="#2B6DB9"/>
<stop offset="0.6997" stop-color="#235DAB"/>
<stop offset="1" stop-color="#2057A6"/>
</linearGradient>
</defs>
</svg>
