<svg width="24" height="24" viewBox="0 0 24 24" fill="none" xmlns="http://www.w3.org/2000/svg">
<path d="M5 4.17373C5 3.52451 5.52446 3 6.17362 3H17.2681C17.9173 3 18.4418 3.52451 18.4418 4.17373C18.4418 4.82296 17.9173 5.34747 17.2681 5.34747H14.2452C14.655 5.545 15.2318 6.46985 15.3785 7.10807H17.2681C17.9173 7.10807 18.4418 7.63258 18.4418 8.2818C18.4418 8.93103 17.9173 9.45554 17.2681 9.45554H15.3749C15.1106 11.8128 12.8233 13.2799 10.6118 13.5624L16.7429 18.8739C17.271 19.2517 17.392 19.9852 17.0143 20.5098C16.6365 21.0343 15.903 21.159 15.3785 20.7812L6.82928 13.5624C6.41485 13.2689 6.23881 12.7371 6.39284 12.2492C6.54688 11.7614 7.00166 11.435 7.51145 11.435H10.4455C11.6485 11.435 12.6827 10.7124 12.9139 9.45554H6.17362C5.52446 9.45554 5 8.93103 5 8.2818C5 7.63258 5.52446 7.10807 6.17362 7.10807H12.9139C12.4628 6.07005 11.4286 5.34747 10.2256 5.34747H6.17362C5.52446 5.34747 5 4.82296 5 4.17373Z" fill="white"/>
</svg>
