<svg width="946" height="452" viewBox="0 0 946 452" fill="none" xmlns="http://www.w3.org/2000/svg">
<path d="M820.476 425.117L821.609 303.859H855.606V318.592C896.401 287.068 922.784 304.85 935.995 325.393C941.457 333.886 942.935 344.157 943.068 354.253L944 425.117H907.736V356.208C907.736 352.338 906.933 348.444 904.81 345.208C890.224 322.971 867.518 331.788 858.289 345.337C856.179 348.435 855.606 352.249 855.606 355.997V425.117H820.476Z" fill="white" stroke="white" stroke-width="2.26651"/>
<path d="M752.48 426.104V303.712H786.478V426.104H752.48Z" fill="white" stroke="white" stroke-width="2.26651"/>
<path d="M555.198 308.584C551.203 332.604 537.074 356.499 518.107 371.313C505.195 381.398 490.722 386.293 475.029 389.495C446.934 395.224 415.424 383.511 394.725 364.654C378.456 349.834 353.97 316.318 353.97 316.318L320.758 358.355C354.201 417.387 411.637 460.376 482.61 447.497C553.583 434.618 607.863 375.698 611.671 309.567C614.438 261.51 597.171 212.262 557.207 183.517C501.187 143.239 427.49 139.321 369.367 176.861C331.165 201.533 310.686 243.656 285.407 280.289C285.407 280.289 278.067 290.789 274.058 287.421C268.157 282.464 273.808 270.945 276.834 265.663C284.202 252.802 293.523 241.21 301.031 228.444C285.434 205.982 269.714 183.033 246.312 167.999C219.725 150.918 194.725 145.089 159.932 146.013C134.299 146.695 111.34 153.434 88.7255 165.364L102.202 73.1824C102.202 73.1824 226.2 71.6243 287.988 71.4566L287.245 0.000366211L38.0206 0.0171053L6.35154 242.573L84.8163 246.572C84.8163 246.572 101.375 222.537 128.675 216.984C137.129 215.264 151.221 215.1 160.354 216.615C171.776 218.511 186.251 226.383 193.182 234.47C203.073 246.009 207.712 255.161 211.983 271.563C214.851 282.577 215.118 310.479 212.456 321.067C205.767 347.674 193.908 364.199 174.615 373.797C164.564 378.799 151.578 381.723 136.702 379.854C106.131 376.012 91.1266 353.549 78.2113 326.804C78.2113 326.804 18.3931 320.876 0.76586 318.183C-7.41481 383.602 51.3814 436.361 108.351 446.566C177.06 458.878 241.002 449.225 291.482 373.146C333.928 316.318 352.99 258.528 397.738 223.651C419.14 206.97 437.421 200.991 463.895 202.015C480.028 202.639 485.136 203.638 497.729 208.635C528.244 220.744 549.895 247.372 555.289 279.43C557.087 290.117 557.065 297.365 555.198 308.584Z" fill="#24FEEE"/>
<circle cx="770.612" cy="269.715" r="20.3986" fill="white"/>
<path d="M627.822 426.104V268.581H726.415V295.779H661.82V334.31H709.417V359.242H661.82V426.104H627.822Z" fill="white" stroke="white" stroke-width="2.26651"/>
</svg>
