<svg width="32" height="32" viewBox="0 0 32 32" fill="none" xmlns="http://www.w3.org/2000/svg">
<g clip-path="url(#clip0_70_3123)">
<path d="M16.1426 8C8.1216 8.00158 0.899678 10.7877 0.0743004 14.5215C-0.474402 17.0053 2.06883 19.5533 5.95569 21.0441C10.5022 16.8377 15.6445 12.3873 22.3528 9.33048C16.2375 13.3377 11.7266 17.7408 8.05191 21.7669C9.28766 22.096 10.638 22.3972 12.0683 22.5644C14.1336 19.3173 16.4327 15.2769 23.2236 9.39619C18.2904 15.4378 15.9893 19.0255 13.9968 22.8177C21.3395 23.4869 29.8834 22.5496 31.9187 15.984C32.7977 12.0004 26.4492 8.45208 17.7551 8.04836C17.218 8.01974 16.6804 8.00362 16.1426 8ZM15.852 8.60768C19.107 8.56931 21.659 8.93623 21.659 8.93623C15.3482 11.2366 10.9018 13.5911 5.04463 16.9691C5.10141 17.0269 0.422725 16.2768 3.78618 12.3368C6.32477 9.36255 11.6673 8.65709 15.852 8.60768ZM24.0949 9.70845C24.0949 9.70845 28.3663 10.2594 29.4183 14.111C30.5756 18.3521 19.6056 20.0527 18.8685 19.4166C20.8982 14.4206 21.4975 14.378 24.0949 9.70845Z" fill="#FF0000"/>
</g>
<defs>
<clipPath id="clip0_70_3123">
<rect width="32" height="32" rx="3" fill="white"/>
</clipPath>
</defs>
</svg>
