<svg width="24" height="24" viewBox="0 0 24 24" fill="none" xmlns="http://www.w3.org/2000/svg">
<path d="M12.6431 2.31156C12.599 2.3556 12.563 2.42766 12.563 2.47169C12.563 2.53575 13.0114 4.02895 13.2035 4.60141C13.2355 4.70549 13.2315 4.7135 13.0314 4.76954C12.4669 4.93367 12.1627 5.5822 12.4029 6.11062C12.4469 6.2067 12.4829 6.29077 12.4829 6.29477C12.4829 6.30278 12.3829 6.36683 12.2588 6.43488C11.4141 6.91927 10.6134 7.76795 10.1491 8.66868C9.74474 9.45331 9.54858 10.27 9.54858 11.1787C9.54858 12.3036 9.84082 13.2724 10.4613 14.2211C10.8296 14.7816 11.3741 15.346 11.7183 15.5182C12.1187 15.7224 12.1066 15.7224 15.021 15.7224C16.7143 15.7224 17.8152 15.7063 17.9233 15.6783C18.2996 15.5942 18.5358 15.4421 18.9481 15.0258C19.7528 14.2171 20.2852 13.1723 20.4734 12.0434C20.5614 11.503 20.5334 10.5062 20.4133 9.99775C20.069 8.50455 19.1403 7.22752 17.8433 6.44689L17.579 6.29077L17.6511 6.14265C17.9313 5.59821 17.6111 4.91766 16.9946 4.74953C16.8785 4.7175 16.8465 4.69348 16.8625 4.64144C16.8745 4.60541 17.0306 4.10901 17.2067 3.53655C17.3869 2.96009 17.519 2.46769 17.507 2.42766C17.467 2.30756 17.3709 2.2315 17.2468 2.2315C17.1667 2.2315 17.0466 2.30756 16.8224 2.49171C16.5622 2.70788 16.5022 2.73991 16.4501 2.69988C16.4141 2.67586 16.274 2.55976 16.1339 2.44367C15.7936 2.15944 15.7336 2.16345 15.3452 2.49171L15.037 2.75192L14.7247 2.49171C14.3204 2.15144 14.2764 2.15144 13.8761 2.49571L13.5638 2.75592L13.2556 2.49571C12.9153 2.20748 12.7832 2.17145 12.6431 2.31156ZM14.5606 3.06417C14.8529 3.31637 14.9689 3.39243 15.049 3.39243C15.089 3.39243 15.2612 3.27634 15.4373 3.13223C15.6135 2.98811 15.7656 2.87202 15.7776 2.87202C15.7896 2.87202 15.9377 2.99211 16.1099 3.13623C16.3901 3.36841 16.4421 3.39644 16.5582 3.37642C16.6543 3.36441 16.6863 3.37242 16.6743 3.40444C16.6663 3.43247 16.5702 3.73671 16.4621 4.08099L16.27 4.7135H15.037H13.808L13.6439 4.18107C13.5518 3.89284 13.4637 3.6006 13.4397 3.53655C13.3877 3.36841 13.3917 3.3484 13.4998 3.37642C13.6239 3.40444 13.6999 3.36441 14.0122 3.09219C14.1523 2.9721 14.2804 2.87202 14.3004 2.87202C14.3164 2.87202 14.4365 2.96009 14.5606 3.06417ZM17.0706 5.41006C17.1827 5.52215 17.2067 5.57819 17.2067 5.7143C17.2067 5.85041 17.1827 5.90646 17.0706 6.01855L16.9345 6.15466H15.057C13.3637 6.15466 13.1715 6.14665 13.0834 6.0866C12.8192 5.90646 12.7952 5.54216 13.0314 5.35401C13.1315 5.27795 13.1795 5.27395 15.033 5.27395H16.9345L17.0706 5.41006ZM17.487 6.87524C18.5678 7.50774 19.3124 8.40046 19.7208 9.5654C19.9129 10.1058 19.985 10.5422 19.985 11.1787C19.985 12.0194 19.8208 12.6999 19.4485 13.4405C19.0963 14.1331 18.4878 14.8376 18.0514 15.0498L17.7872 15.1819L15.1531 15.1939C12.2948 15.2059 12.2307 15.2019 11.8945 14.9898C11.6583 14.8416 11.1419 14.2732 10.8977 13.8969C9.3244 11.4869 10.101 8.29238 12.607 6.86723L12.9113 6.69509L15.057 6.7031L17.2067 6.7111L17.487 6.87524Z" fill="white"/>
<path d="M13.9722 7.54769C13.792 7.60373 13.6119 7.79589 13.4478 8.11214C13.3557 8.28828 13.2676 8.4404 13.2516 8.45241C13.2356 8.46042 13.0635 8.50045 12.8673 8.53248C12.463 8.60454 12.3028 8.6846 12.1667 8.88076C12.0827 9.00486 12.0747 9.04489 12.0987 9.35714C12.1147 9.54529 12.1347 9.75346 12.1467 9.82552C12.1667 9.93761 12.1467 9.98164 11.9105 10.2298C11.6063 10.5501 11.5222 10.6982 11.5222 10.8984C11.5222 11.1226 11.6103 11.2747 11.9025 11.5749C12.1427 11.8231 12.1667 11.8632 12.1467 11.9752C12.1347 12.0433 12.1147 12.2515 12.0987 12.4396C12.0787 12.7319 12.0867 12.7999 12.1547 12.92C12.2588 13.1082 12.483 13.2283 12.8433 13.2803C13.0074 13.3083 13.1795 13.3524 13.2236 13.3804C13.2716 13.4084 13.3877 13.5805 13.4838 13.7607C13.792 14.3291 14.0442 14.4092 14.6407 14.121C14.8209 14.0329 15.001 13.9608 15.033 13.9608C15.0691 13.9608 15.2572 14.0369 15.4574 14.125C15.7616 14.2691 15.8417 14.2891 16.0138 14.2731C16.262 14.2491 16.4382 14.0889 16.6263 13.7166C16.6984 13.5725 16.7865 13.4324 16.8225 13.4044C16.8585 13.3724 17.0547 13.3163 17.2548 13.2763C17.6351 13.2002 17.7632 13.1362 17.9033 12.944C17.9954 12.8199 18.0154 12.5317 17.9554 12.0913L17.9194 11.8391L18.1836 11.5669C18.696 11.0385 18.696 10.7823 18.1876 10.2419L17.9154 9.95762L17.9674 9.58533C18.0675 8.85274 17.9234 8.64857 17.2148 8.53248C17.0266 8.50446 16.8505 8.45642 16.8225 8.42839C16.7945 8.40037 16.7064 8.24825 16.6263 8.09613C16.4342 7.73984 16.3861 7.67979 16.17 7.58772C15.9538 7.48764 15.8297 7.50765 15.3853 7.72383L15.0451 7.88396L14.7008 7.71982C14.3445 7.55169 14.1323 7.49965 13.9722 7.54769ZM14.4886 8.23624C14.7528 8.36434 14.8649 8.39637 15.037 8.39637C15.2092 8.39637 15.3253 8.36434 15.5895 8.23624C15.7736 8.14817 15.9418 8.07611 15.9658 8.07611C15.9858 8.07611 16.0659 8.20021 16.1419 8.34833C16.4021 8.86074 16.5423 8.97283 17.0627 9.0609C17.475 9.13296 17.499 9.16098 17.447 9.4332C17.427 9.5533 17.407 9.76147 17.407 9.89758C17.407 10.1818 17.507 10.3619 17.8233 10.6782C17.9234 10.7743 18.0074 10.8824 18.0074 10.9184C18.0074 10.9544 17.9234 11.0625 17.8233 11.1586C17.7192 11.2587 17.5871 11.4188 17.523 11.5149C17.423 11.667 17.407 11.7351 17.411 11.9552C17.411 12.1034 17.427 12.3075 17.447 12.4196C17.463 12.5357 17.463 12.6398 17.443 12.6638C17.423 12.6878 17.2668 12.7319 17.0947 12.7599C16.5543 12.8439 16.4182 12.94 16.186 13.4044C15.9898 13.7927 15.9938 13.7887 15.5855 13.5925C15.1171 13.3684 14.973 13.3684 14.5046 13.5925C14.3125 13.6846 14.1443 13.7607 14.1243 13.7607C14.1083 13.7607 14.0282 13.6326 13.9442 13.4765C13.768 13.1402 13.5879 12.924 13.4237 12.86C13.3597 12.8319 13.1635 12.7839 12.9954 12.7599C12.8233 12.7319 12.6631 12.6878 12.6431 12.6598C12.6111 12.6238 12.6111 12.5317 12.6431 12.3556C12.7352 11.7711 12.6872 11.611 12.3028 11.1986C11.9986 10.8744 11.9946 10.9304 12.3669 10.5381C12.495 10.406 12.6191 10.2459 12.6391 10.1858C12.6952 10.0417 12.6952 9.76947 12.6391 9.44121C12.6191 9.3011 12.6151 9.16899 12.6311 9.15298C12.6471 9.13696 12.7912 9.10094 12.9434 9.07692C13.5158 8.99285 13.688 8.86875 13.9442 8.35634C14.0202 8.20021 14.1003 8.07611 14.1203 8.07611C14.1403 8.07611 14.3085 8.14817 14.4886 8.23624Z" fill="white"/>
<path d="M15.9139 9.16104C15.8218 9.21709 13.7962 12.2675 13.7721 12.3876C13.7441 12.5358 13.8642 12.6799 14.0163 12.6799C14.0844 12.6799 14.1645 12.6639 14.1885 12.6478C14.2165 12.6318 14.6969 11.9193 15.2653 11.0626C16.3502 9.41324 16.3903 9.33718 16.2061 9.18906C16.106 9.109 16.022 9.10099 15.9139 9.16104Z" fill="white"/>
<path d="M13.5839 9.34098C13.2877 9.50511 13.1275 9.76532 13.1235 10.0896C13.1235 10.3418 13.1956 10.5059 13.3958 10.6861C13.732 10.9863 14.1844 10.9783 14.5006 10.662C14.8729 10.2897 14.8249 9.70928 14.3926 9.40904C14.1924 9.26892 13.7761 9.2369 13.5839 9.34098ZM14.1003 9.88142C14.2284 9.9815 14.2404 10.1616 14.1203 10.2817C13.9362 10.4659 13.5879 10.2617 13.672 10.0135C13.708 9.90544 13.8441 9.79735 13.9482 9.79735C13.9722 9.79735 14.0403 9.83338 14.1003 9.88142Z" fill="white"/>
<path d="M15.8656 10.9664C15.4012 11.1306 15.1851 11.683 15.4172 12.1234C15.6815 12.6238 16.358 12.7038 16.7423 12.2795C17.0265 11.9632 17.0345 11.5309 16.7543 11.2106C16.5301 10.9544 16.1779 10.8583 15.8656 10.9664ZM16.334 11.5469C16.422 11.627 16.426 11.8271 16.338 11.9272C16.2739 11.9993 16.0658 12.0233 15.9817 11.9672C15.9297 11.9352 15.8456 11.7831 15.8456 11.727C15.8456 11.707 15.8816 11.643 15.9297 11.5829C16.0257 11.4588 16.2179 11.4428 16.334 11.5469Z" fill="white"/>
<path d="M3.37552 14.6975C3.21139 14.7696 3.04326 14.9737 3.01523 15.1339C3.00322 15.2059 2.99522 16.595 3.00322 18.2243L3.01523 21.1867L3.10731 21.3188C3.29546 21.579 3.33149 21.587 4.57649 21.587C5.65736 21.587 5.70139 21.583 5.8375 21.499C6.02966 21.3789 6.11773 21.2148 6.11773 20.9746C6.11773 20.8625 6.13374 20.7624 6.15376 20.7504C6.21781 20.7103 7.03847 20.8064 7.53487 20.9105C7.99524 21.0066 8.45161 21.1467 9.54048 21.527C10.5973 21.8953 11.446 22.0274 12.5829 21.9954C13.4396 21.9714 13.7639 21.9233 14.8207 21.6591C16.2018 21.3148 17.5469 20.8304 18.7879 20.23C19.5205 19.8737 20.2611 19.4653 20.4933 19.2772C20.8095 19.033 21.0417 18.4926 20.9937 18.1083C20.9497 17.7239 20.8536 17.5198 20.5934 17.2596C20.2731 16.9393 20.0009 16.8312 19.5685 16.8512C19.3003 16.8632 19.0762 16.9353 17.4629 17.5158C16.4701 17.8721 15.6494 18.1643 15.6414 18.1643C15.6334 18.1643 15.6254 18.0082 15.6254 17.812C15.6254 17.5398 15.6054 17.4237 15.5373 17.2756C15.4092 16.9954 15.125 16.7111 14.8327 16.579L14.5845 16.4629L13.2234 16.4429C11.5661 16.4149 11.6742 16.4429 10.7414 15.7824C10.2931 15.4661 9.60854 15.1819 9.0641 15.0858C8.71181 15.0218 7.96321 15.0338 7.60693 15.1058C7.21061 15.1859 6.77025 15.338 6.42998 15.5062C6.28186 15.5822 6.14975 15.6423 6.13774 15.6423C6.12573 15.6423 6.11773 15.5102 6.11773 15.35C6.11773 14.9937 6.03366 14.8336 5.78546 14.7215C5.63334 14.6495 5.51725 14.6415 4.55647 14.6455C3.76383 14.6455 3.46359 14.6575 3.37552 14.6975ZM5.5893 18.1123L5.57729 21.0266L4.56848 21.0386L3.55567 21.0466V18.1243V15.2019H4.57649H5.59731L5.5893 18.1123ZM9.20821 15.6783C9.62855 15.7864 10.0449 15.9705 10.3812 16.1987C10.5333 16.3028 10.7815 16.4709 10.9336 16.575C11.0897 16.6831 11.3419 16.8072 11.5341 16.8673C11.8583 16.9753 11.8824 16.9793 13.2034 16.9994C14.6486 17.0234 14.6686 17.0274 14.8688 17.2516C15.0809 17.4797 15.149 17.856 15.0289 18.1363C14.9729 18.2764 14.7367 18.5046 14.5685 18.5766C14.5005 18.6087 14.0241 18.6287 13.1474 18.6447L11.8303 18.6647L11.7543 18.7688C11.6702 18.8809 11.6822 18.997 11.7863 19.1051C11.8383 19.1571 12.0465 19.1651 13.1914 19.1651C14.5205 19.1651 14.5325 19.1651 14.7767 19.065C15.117 18.9329 19.1402 17.4878 19.3844 17.4157C20.0649 17.2075 20.6814 17.9401 20.3652 18.5886C20.2691 18.7928 20.169 18.8729 19.5485 19.2251C17.607 20.338 14.7327 21.2988 12.9112 21.4509C11.9384 21.531 10.7695 21.3789 9.80469 21.0426C9.54849 20.9545 9.13215 20.8104 8.87995 20.7224C8.05929 20.4381 7.23863 20.258 6.54607 20.2139L6.13774 20.1859V18.2283V16.2708L6.37794 16.1387C6.8263 15.8865 7.51886 15.6543 7.99924 15.5902C8.26345 15.5542 8.90397 15.6022 9.20821 15.6783Z" fill="white"/>
</svg>
