<svg width="24" height="24" viewBox="0 0 24 24" fill="none" xmlns="http://www.w3.org/2000/svg">
<path d="M11.9999 7.71422C12.3409 7.71422 12.6679 7.57876 12.909 7.33765C13.1502 7.09653 13.2856 6.7695 13.2856 6.42851C13.2856 6.08751 13.1502 5.76049 12.909 5.51937C12.6679 5.27825 12.3409 5.14279 11.9999 5.14279C11.6589 5.14279 11.3319 5.27825 11.0908 5.51937C10.8496 5.76049 10.7142 6.08751 10.7142 6.42851C10.7142 6.7695 10.8496 7.09653 11.0908 7.33765C11.3319 7.57876 11.6589 7.71422 11.9999 7.71422ZM12.7628 1.96708C12.5418 1.80419 12.2744 1.71631 11.9999 1.71631C11.7254 1.71631 11.458 1.80419 11.237 1.96708L3.09419 7.97136C2.09647 8.70765 2.61676 10.2916 3.85704 10.2916H4.28561V16.4991C3.77782 16.7107 3.34403 17.0679 3.03895 17.5256C2.73387 17.9834 2.57116 18.5212 2.57133 19.0714V20.3571C2.57133 20.7119 2.85933 20.9999 3.21419 20.9999H20.7856C20.9561 20.9999 21.1196 20.9322 21.2402 20.8116C21.3607 20.6911 21.4285 20.5276 21.4285 20.3571V19.0714C21.4285 18.5214 21.2657 17.9837 20.9606 17.5261C20.6555 17.0685 20.2218 16.7115 19.7142 16.4999V10.2916H20.1419C21.383 10.2916 21.9033 8.70765 20.9048 7.97136L12.7628 1.96708ZM5.57133 16.2857V10.2916H7.71419V16.2857H5.57133ZM18.4285 10.2916V16.2857H16.2856V10.2916H18.4285ZM14.9999 10.2916V16.2857H12.6428V10.2916H14.9999ZM11.357 10.2916V16.2857H8.9999V10.2916H11.357ZM3.85704 9.00594L11.9999 3.00165L20.1419 9.00594H3.85704ZM3.85704 19.0714C3.85704 18.2434 4.52904 17.5714 5.35704 17.5714H18.6428C19.4708 17.5714 20.1428 18.2434 20.1428 19.0714V19.7142H3.85704V19.0714Z" fill="white"/>
</svg>
