<svg width="16" height="14" viewBox="0 0 16 14" fill="none" xmlns="http://www.w3.org/2000/svg">
<path d="M6.59984 1.82676C7.05873 1.71935 7.52855 1.66566 7.99984 1.66676C12.6665 1.66676 15.3332 7.0001 15.3332 7.0001C14.9285 7.75717 14.4459 8.46992 13.8932 9.12676M9.41317 8.41343C9.23007 8.60993 9.00927 8.76754 8.76394 8.87685C8.51861 8.98616 8.25377 9.04494 7.98523 9.04968C7.71669 9.05441 7.44995 9.00501 7.20091 8.90443C6.95188 8.80384 6.72565 8.65412 6.53573 8.4642C6.34582 8.27428 6.1961 8.04806 6.09551 7.79902C5.99492 7.54999 5.94552 7.28325 5.95026 7.0147C5.955 6.74616 6.01378 6.48133 6.12309 6.236C6.2324 5.99067 6.39001 5.76986 6.5865 5.58677M11.9598 10.9601C10.8202 11.8288 9.43258 12.31 7.99984 12.3334C3.33317 12.3334 0.666504 7.0001 0.666504 7.0001C1.49576 5.4547 2.64593 4.1045 4.03984 3.0401L11.9598 10.9601Z" stroke="#8C8F9F" stroke-width="2" stroke-linecap="round" stroke-linejoin="round"/>
</svg>
