<svg xmlns="http://www.w3.org/2000/svg" width="23.333" height="26" viewBox="0 0 23.333 26">
  <g id="receipt" transform="translate(1 1)">
    <path id="receipt-2" data-name="receipt" d="M4,9.4c0-2.24,0-3.36.436-4.216A4,4,0,0,1,6.184,3.436C7.04,3,8.16,3,10.4,3h8.533c2.24,0,3.36,0,4.216.436A4,4,0,0,1,24.9,5.184c.436.856.436,1.976.436,4.216V27l-3.667-2.667L18.333,27l-3.667-2.667L11,27,7.667,24.333,4,27Z" transform="translate(-4 -3)" fill="none" stroke="#141414" stroke-linecap="round" stroke-linejoin="round" stroke-width="2"/>
  </g>
</svg>
