<svg width="32" height="32" viewBox="0 0 32 32" fill="none" xmlns="http://www.w3.org/2000/svg">
<g clip-path="url(#clip0_70_3145)">
<path fill-rule="evenodd" clip-rule="evenodd" d="M24.9943 27.0065C23.9658 27.7379 22.614 27.8479 21.5667 27.3725C21.5667 27.3725 21.2812 27.2628 21.0148 26.9702C20.7856 26.695 14.9967 20.4212 14.9967 20.4212L14.978 20.4026C16.7683 20.7138 18.7297 19.8909 19.7389 18.3908C20.7475 16.9639 20.7102 14.9335 19.7579 13.5066C18.6157 11.9519 16.3872 11.4399 14.521 11.6773C11.2839 12.1165 8.96078 14.8786 8.23769 17.7694C7.49437 21.0613 8.02811 24.1712 9.19028 27.0979C9.45613 27.7202 9.81812 28.3602 10.2563 28.9083C6.84719 27.4822 3.83845 24.8481 2.25831 21.3173C0.506413 17.5125 0.544517 12.7019 2.6203 8.84231C4.25759 5.86072 7.15173 3.09856 10.732 1.92763C14.4829 0.446129 19.5293 0.757 23.1858 2.73254C27.6223 4.85437 30.9737 10.1415 30.9927 14.8606C31.1451 19.7446 28.8973 24.1712 24.9943 27.0065Z" fill="#BFA161"/>
<path fill-rule="evenodd" clip-rule="evenodd" d="M12.5408 28.8543C10.8845 27.1342 9.55112 24.9029 10.5609 22.5799C11.4551 20.8055 12.255 18.9943 12.6361 16.9453C12.7885 19.086 14.1409 20.9884 14.7875 23.0374C15.0351 24.0249 15.0545 25.0495 14.6547 26.0735C14.2168 27.1893 13.5119 28.1402 12.6739 29L12.5408 28.8543Z" fill="#BFA161"/>
</g>
<defs>
<clipPath id="clip0_70_3145">
<rect width="32" height="32" rx="3" fill="white"/>
</clipPath>
</defs>
</svg>
