<svg xmlns="http://www.w3.org/2000/svg" width="34" height="34" viewBox="0 0 34 34">
  <g id="sale-01" transform="translate(1 1)">
    <path id="sale-01-2" data-name="sale-01" d="M13.2,13.2h.016M22.8,22.8h.016M24.4,11.6,11.6,24.4M34,18A16,16,0,1,1,18,2,16,16,0,0,1,34,18ZM14,13.2a.8.8,0,1,1-.8-.8A.8.8,0,0,1,14,13.2Zm9.6,9.6a.8.8,0,1,1-.8-.8A.8.8,0,0,1,23.6,22.8Z" transform="translate(-2 -2)" fill="none" stroke="#92fff7" stroke-linecap="round" stroke-linejoin="round" stroke-width="2"/>
  </g>
</svg>
