<svg width="20" height="16" viewBox="0 0 20 16" fill="none" xmlns="http://www.w3.org/2000/svg">
<path d="M0.508261 0.51608C0.308222 0.624797 0.134275 0.837882 0.073393 1.04662C-0.0266266 1.37712 -0.0222779 15.0363 0.073393 15.3668C0.142972 15.6016 0.395195 15.88 0.582188 15.9234C0.638721 15.9365 3.31316 15.9539 6.53118 15.9669C9.7492 15.9756 12.7628 15.9887 13.2281 15.9974C14.0109 16.0061 14.1022 15.9974 14.4023 15.906C15.0894 15.6973 15.6547 15.2972 15.8374 14.8928C15.9461 14.658 15.9504 14.2318 15.8547 13.9839C15.7939 13.8361 15.7852 13.71 15.8113 13.1968L15.8374 12.5837L16.4331 11.827C16.8593 11.2791 17.0419 11.0747 17.0941 11.0921C17.1333 11.1008 17.2507 11.1442 17.3594 11.1877C17.616 11.2834 18.2074 11.2834 18.5727 11.1877C19.1336 11.0355 19.7077 10.6659 19.9295 10.3093C20.0077 10.1832 20.0164 10.1354 19.9773 10.0527C19.8903 9.86139 19.3337 9.51784 18.8597 9.36129L18.6423 9.29171L18.9032 9.01774C19.1771 8.73073 19.3815 8.39153 19.5163 7.98711C19.6337 7.65226 19.6337 6.69555 19.5163 6.29112C19.4033 5.89539 19.0554 5.18221 18.8249 4.8778C18.577 4.55165 18.1508 4.13418 18.0247 4.09939C17.8856 4.0559 17.7334 4.2168 17.7725 4.36901C18.0552 5.49966 18.0726 6.37375 17.8203 6.92168C17.7203 7.14781 17.4681 7.46527 17.3985 7.46527C17.3768 7.46527 17.3594 6.13022 17.3594 4.27769C17.3594 1.2771 17.355 1.08576 17.2768 0.920507C17.1854 0.720468 17.0419 0.576962 16.868 0.511731C16.6897 0.442153 0.630024 0.446502 0.508261 0.51608ZM16.8202 1.03357C16.8984 1.12055 16.9028 1.25101 16.9158 4.42119L16.9245 7.71749L16.7854 7.74358C16.7071 7.75663 16.5418 7.77837 16.4201 7.79577C16.2026 7.82186 16.1939 7.81751 16.107 7.67835C15.9548 7.43048 15.8417 7.39134 15.1198 7.3609C14.7632 7.3435 14.3892 7.31741 14.2936 7.30002L14.1196 7.26958L14.1066 6.06064L14.0979 4.85606H14.3501C14.6284 4.85606 14.7937 4.77344 14.7937 4.63428C14.7937 4.51252 13.3586 2.03377 13.2542 1.97724C13.2021 1.9468 13.1412 1.9468 13.0803 1.97724C12.9672 2.02507 11.5322 4.49077 11.5322 4.62993C11.5322 4.77344 11.6931 4.85606 11.9757 4.85606H12.228L12.2193 6.06064L12.2062 7.26958L12.0323 7.30002C11.9366 7.31741 11.567 7.3435 11.206 7.3609C10.4885 7.39134 10.3711 7.43048 10.2058 7.67835C10.158 7.75228 10.0884 7.81316 10.0536 7.81316C9.84922 7.81316 9.38826 7.70444 9.17083 7.60877C8.38807 7.25653 8.13149 6.22155 8.46634 4.75169C8.54462 4.40815 8.56201 4.26029 8.52722 4.19941C8.50548 4.15157 8.46634 4.11679 8.4446 4.11679C8.4272 4.11679 8.37937 4.10374 8.34023 4.09069C8.25326 4.0559 7.72272 4.56035 7.4618 4.92564C7.17479 5.32572 6.93126 5.85191 6.8095 6.31722C6.54858 7.3609 6.77036 8.3524 7.41831 9.01774L7.68793 9.29171L7.46615 9.36129C7.14434 9.46566 6.68338 9.71788 6.479 9.89618C6.25287 10.0962 6.27026 10.1875 6.57467 10.5224C6.82689 10.7964 7.30525 11.0703 7.74881 11.1834C8.15324 11.2921 8.70552 11.2834 9.00993 11.166C9.14039 11.1182 9.26215 11.0747 9.2752 11.0747C9.29259 11.0747 9.56656 11.4139 9.89271 11.827L10.4798 12.5793L10.5102 13.1707C10.5363 13.6752 10.532 13.7969 10.4667 13.9883C10.3015 14.4797 10.4276 14.9798 10.7929 15.3103L10.9668 15.4668H5.79191H0.621326L0.551748 15.3364C0.495215 15.2233 0.486517 14.3971 0.486517 8.20454C0.486517 2.01202 0.495215 1.18578 0.551748 1.07271L0.621326 0.94225H8.67943H16.7375L16.8202 1.03357ZM13.6587 3.49492C13.9239 3.95154 14.1414 4.33857 14.1414 4.35161C14.1414 4.36466 13.7022 4.37771 13.1629 4.37771C12.6237 4.37771 12.1845 4.36466 12.1845 4.35161C12.1845 4.31682 13.1542 2.63824 13.1673 2.65128C13.1716 2.65563 13.3934 3.03396 13.6587 3.49492ZM13.663 6.03455V7.21304L13.4804 7.17825C13.376 7.15651 13.2368 7.14346 13.1629 7.14346C13.0933 7.14346 12.9498 7.15651 12.8498 7.17825L12.6628 7.21304V6.03455V4.85606H13.1629H13.663V6.03455ZM7.90101 5.27353C7.84883 5.62578 7.87492 6.43028 7.9445 6.70425C8.20977 7.72619 9.00558 8.28717 10.1145 8.23933L10.4189 8.22628L10.5276 8.03929L10.6407 7.84795L11.0973 7.83055C11.6409 7.81316 12.2323 7.74793 12.7759 7.65661C13.1325 7.59573 13.2064 7.59573 13.5369 7.65661C13.9848 7.73923 14.6241 7.80446 15.2242 7.8349C15.4721 7.84795 15.6808 7.861 15.6851 7.86535C15.6895 7.87404 15.7504 7.96536 15.8156 8.06973L15.933 8.26107L16.394 8.23498C17.5072 8.17845 18.1465 7.66965 18.3857 6.65206C18.4379 6.43028 18.4509 6.20415 18.4379 5.73014C18.4205 5.11698 18.4205 5.10828 18.4987 5.20395C18.6466 5.39095 18.8814 5.84321 18.9858 6.15197C19.425 7.44352 19.0641 8.53939 18.003 9.13516C17.6986 9.30476 17.629 9.40478 17.7073 9.55263C17.7595 9.6483 17.829 9.67005 18.2074 9.69614C18.5161 9.71788 19.0032 9.87878 19.2685 10.0484L19.4555 10.1701L19.338 10.2919C19.1902 10.4485 18.7597 10.6615 18.4248 10.7485C17.9378 10.8746 17.5246 10.8181 17.2028 10.5876C17.055 10.4832 17.0028 10.4659 16.9332 10.505C16.8549 10.5441 15.6025 12.114 15.4373 12.3793C15.3286 12.5489 15.3155 13.8926 15.4199 14.1622C15.5634 14.5319 15.4068 14.8754 14.9633 15.1624C14.511 15.4538 13.8022 15.6277 13.4325 15.5408C13.3325 15.519 12.9455 15.4886 12.5758 15.4712C11.9279 15.4451 11.8888 15.4407 11.6191 15.3059C11.2451 15.1233 11.019 14.9276 10.919 14.7102C10.819 14.4884 10.8146 14.3362 10.906 14.1274C10.9668 13.997 10.9799 13.8361 10.9712 13.249C10.9625 12.7837 10.9407 12.4923 10.906 12.4228C10.819 12.2401 9.45349 10.5224 9.37522 10.4919C9.32738 10.4746 9.23606 10.5093 9.13604 10.5789C8.90556 10.7398 8.67943 10.8094 8.40111 10.8137C7.9358 10.8137 7.24871 10.5659 6.99214 10.2963L6.87038 10.1701L7.04432 10.0527C7.28785 9.89183 7.7749 9.73093 8.1054 9.70049C8.50548 9.6657 8.56636 9.6483 8.61855 9.55263C8.70117 9.40043 8.62724 9.30911 8.27935 9.10472C7.51398 8.66115 7.16174 8.04799 7.16609 7.16086C7.16609 6.65641 7.24002 6.32156 7.44875 5.86061C7.56617 5.59968 7.87927 5.07349 7.91841 5.07349C7.92711 5.07349 7.91841 5.16482 7.90101 5.27353Z" fill="white"/>
<path d="M4.02211 1.91663C3.18716 2.12537 2.46093 2.83855 2.22176 3.6822C2.13913 3.97356 2.15218 4.65195 2.2435 4.96506C2.55226 6.01744 3.49157 6.73062 4.57439 6.73932C5.28758 6.74367 5.83986 6.51754 6.33996 6.00874C7.59238 4.74327 7.13141 2.64286 5.46152 2.00361C5.10058 1.86445 4.3961 1.82096 4.02211 1.91663ZM4.35696 3.16036C4.35696 3.61262 4.35261 3.9866 4.34391 3.9866C4.32217 3.9866 2.85666 3.59522 2.80013 3.57348C2.70881 3.53869 2.93494 3.1647 3.21326 2.88639C3.50027 2.59938 3.97427 2.34715 4.26129 2.33846L4.35696 2.33411V3.16036ZM5.48761 2.51675C6.04859 2.79072 6.47042 3.36474 6.57913 3.9953C6.74003 4.96071 6.07469 5.97395 5.11798 6.22183C4.18301 6.4697 3.2263 6.01744 2.80448 5.139C2.67402 4.86069 2.64793 4.75197 2.62618 4.42147C2.60879 4.10402 2.61749 4.03009 2.66532 4.03009C2.70011 4.03009 3.12628 4.13881 3.61768 4.26927C4.60048 4.53454 4.72225 4.54758 4.79183 4.42582C4.81792 4.37364 4.83531 3.94312 4.83531 3.32995V2.32106L5.02231 2.3515C5.12233 2.3689 5.33106 2.44282 5.48761 2.51675Z" fill="white"/>
<path d="M2.89135 7.50849C2.83482 7.53023 2.79133 7.56937 2.79133 7.59112C2.79133 7.61286 2.77828 7.6607 2.76524 7.69548C2.75219 7.73462 2.78263 7.8042 2.83047 7.85204C2.92179 7.94336 2.96093 7.94336 4.60908 7.94336C6.192 7.94336 6.30506 7.93901 6.37029 7.86508C6.47031 7.75202 6.46161 7.61286 6.34855 7.53458C6.26592 7.4737 6.02675 7.465 4.61777 7.46935C3.72195 7.46935 2.94353 7.48675 2.89135 7.50849Z" fill="white"/>
<path d="M2.89135 9.16169C2.83482 9.18343 2.79133 9.22257 2.79133 9.24431C2.79133 9.26606 2.77828 9.31389 2.76524 9.34868C2.75219 9.38782 2.78263 9.4574 2.83047 9.50524C2.92179 9.59656 2.96093 9.59656 4.60908 9.59656C6.192 9.59656 6.30506 9.59221 6.37029 9.51828C6.47031 9.40522 6.46161 9.26606 6.34855 9.18778C6.26592 9.1269 6.02675 9.1182 4.61777 9.12255C3.72195 9.12255 2.94353 9.13995 2.89135 9.16169Z" fill="white"/>
<path d="M2.22589 9.9441C2.14327 10.0267 2.13892 10.0876 2.13892 12.3054C2.13892 14.7755 2.13457 14.7407 2.3781 14.7407C2.62162 14.7363 2.61728 14.7755 2.61728 12.3141C2.61728 10.3355 2.60858 10.0398 2.5477 9.9528C2.46507 9.83539 2.33896 9.83104 2.22589 9.9441Z" fill="white"/>
<path d="M3.42627 11.3007C3.36539 11.3833 3.35669 11.6181 3.35669 12.988C3.35669 14.7188 3.36104 14.7361 3.59587 14.7361C3.8307 14.7361 3.83504 14.7188 3.83504 12.988C3.83504 11.2616 3.82635 11.205 3.59587 11.205C3.53933 11.205 3.46106 11.2485 3.42627 11.3007Z" fill="white"/>
<path d="M4.64404 12.2574C4.58316 12.34 4.57446 12.5314 4.57446 13.4663C4.57446 14.6796 4.58316 14.7361 4.81364 14.7361C5.04412 14.7361 5.05282 14.684 5.05282 13.4402C5.05282 12.4618 5.04412 12.2878 4.98324 12.2313C4.88757 12.1313 4.72232 12.1443 4.64404 12.2574Z" fill="white"/>
<path d="M5.86157 12.9097C5.80504 12.988 5.79199 13.1532 5.79199 13.7925C5.79199 14.6579 5.81374 14.7361 6.03117 14.7361C6.25295 14.7361 6.27035 14.6579 6.27035 13.7664C6.27035 13.0836 6.2573 12.9401 6.20077 12.8836C6.1051 12.7836 5.93985 12.7966 5.86157 12.9097Z" fill="white"/>
<path d="M10.6361 9.63106C10.5448 9.69195 10.4926 9.8398 10.4448 10.2007C10.3926 10.5878 10.423 10.7704 10.5839 10.9965C10.8362 11.3575 11.4493 11.4706 11.8494 11.2357C12.1582 11.0531 12.3712 10.6661 12.293 10.4269C12.2756 10.366 12.0233 10.2181 11.5319 9.96591C10.797 9.59628 10.7274 9.57018 10.6361 9.63106ZM11.3797 10.4095C11.6059 10.5225 11.7929 10.64 11.7929 10.6661C11.7929 10.7617 11.6189 10.8661 11.4319 10.8878C11.2188 10.9139 10.9971 10.8226 10.9231 10.6878C10.8492 10.5486 10.8709 10.2051 10.9536 10.2051C10.9579 10.2051 11.1536 10.2964 11.3797 10.4095Z" fill="white"/>
<path d="M14.5983 9.96579C14.22 10.1658 13.8808 10.3615 13.8503 10.405C13.7373 10.5616 13.9243 11.0051 14.1808 11.1791C14.7244 11.5487 15.4724 11.3313 15.6637 10.7442C15.6985 10.6442 15.7072 10.4876 15.6898 10.318C15.629 9.79185 15.542 9.59616 15.3637 9.59616C15.3245 9.59616 14.981 9.76141 14.5983 9.96579ZM15.2289 10.4398C15.2289 10.6485 15.2158 10.6877 15.0941 10.7877C14.9984 10.8703 14.9114 10.9008 14.781 10.9008C14.5853 10.9008 14.3157 10.766 14.3157 10.6703C14.3157 10.6181 15.0636 10.2137 15.1767 10.2093C15.2115 10.205 15.2289 10.2789 15.2289 10.4398Z" fill="white"/>
<path d="M12.0057 12.9012C11.797 13.0099 11.5013 13.3404 11.3926 13.5883C11.1882 14.0449 11.2969 14.6102 11.6578 14.9885C11.8709 15.2147 12.0884 15.2668 12.6406 15.2321C13.1755 15.1929 13.1494 15.1929 13.6843 15.2321C14.2453 15.2668 14.454 15.2147 14.6802 14.9755C14.928 14.7146 15.0281 14.4623 15.0281 14.097C15.0281 13.7274 14.928 13.4752 14.6584 13.1838C14.4453 12.9533 14.2062 12.8142 14.0148 12.8142C13.9452 12.8142 13.7843 12.8664 13.6582 12.9316C13.4799 13.0273 13.3669 13.0534 13.1625 13.0534C12.9581 13.0534 12.845 13.0273 12.6667 12.9316C12.4015 12.7968 12.2232 12.7837 12.0057 12.9012ZM12.545 13.3882C12.7015 13.4752 12.7928 13.4882 13.1625 13.4882C13.5278 13.4882 13.6321 13.4708 13.7974 13.3882C14.0496 13.2665 14.0931 13.2665 14.2584 13.4187C14.4845 13.623 14.5889 13.8753 14.5671 14.1623C14.528 14.7189 14.1409 14.9189 13.4234 14.7537C13.1973 14.6972 13.1277 14.6972 12.9016 14.7537C12.3493 14.8798 12.0231 14.8015 11.8492 14.4884C11.6665 14.1623 11.7405 13.7665 12.0449 13.4534C12.2275 13.2665 12.2971 13.2578 12.545 13.3882Z" fill="white"/>
<path d="M12.1542 13.8095C12.0455 13.8791 12.0107 13.9313 12.0107 14.0313C12.0107 14.2009 12.176 14.3227 12.3151 14.2487C12.3891 14.2096 12.4239 14.2183 12.5195 14.2879C12.6674 14.4096 12.7761 14.4009 12.8631 14.2705C12.9457 14.1444 12.9196 14.04 12.7544 13.8835C12.5848 13.7226 12.3412 13.6921 12.1542 13.8095Z" fill="white"/>
<path d="M13.6765 13.815C13.4722 13.9367 13.3808 14.0976 13.4374 14.2281C13.5069 14.3803 13.6504 14.4064 13.7983 14.2977C13.8983 14.2237 13.9418 14.2151 14.007 14.2498C14.1984 14.3499 14.4158 14.1281 14.3114 13.9367C14.2593 13.8411 14.0505 13.728 13.9157 13.728C13.8592 13.728 13.7548 13.7671 13.6765 13.815Z" fill="white"/>
</svg>
