<svg width="24" height="25" viewBox="0 0 24 25" fill="none" xmlns="http://www.w3.org/2000/svg">
<path d="M10.7946 0.99662C5.28719 1.68383 1.06712 5.62321 0.137927 10.937C-0.0459756 12.0017 -0.0459756 13.8601 0.137927 15.0313C0.941289 19.9482 4.9581 23.9844 9.9041 24.8555C11.114 25.0588 13.1079 25.0491 14.2887 24.8168C18.7798 23.936 22.4482 20.4903 23.6193 16.0476C24.0162 14.5473 24.113 12.4276 23.8613 10.9661C22.9902 5.98134 19.0411 2.00324 14.0951 1.15149C13.0208 0.957905 11.5979 0.89983 10.7946 0.99662ZM14.1726 2.22586C16.0019 2.56463 18.0829 3.63901 19.467 4.95536C20.5027 5.94262 21.1415 6.76534 21.7319 7.89779C22.6224 9.62067 22.9321 10.9467 22.9321 13.0858C22.9321 14.6731 22.7579 15.641 22.2643 16.9284C21.7803 18.1673 20.7253 19.9289 20.493 19.8514C20.4349 19.8321 20.2994 19.5127 20.1833 19.1449C19.5348 17.1123 17.9764 15.1958 16.1568 14.1795C15.0921 13.5794 14.9566 13.56 13.9693 13.8988C13.224 14.1505 12.9627 14.1892 12.0432 14.1892C11.1043 14.1989 10.8914 14.1698 10.2526 13.9279C9.17817 13.5213 9.12978 13.5213 8.26834 13.9472C6.26478 14.9248 4.49351 16.9574 3.80629 19.0674C3.66111 19.5127 3.51592 19.8708 3.46753 19.8708C3.17715 19.8708 1.92855 17.5769 1.51235 16.2895C0.82514 14.1698 0.863857 11.45 1.60914 9.38837C3.09004 5.25541 6.74873 2.42912 11.1237 2.0226C11.8012 1.96453 13.3208 2.06132 14.1726 2.22586Z" fill="white"/>
<path d="M10.9401 4.53909C10.2044 4.73267 9.5753 5.10047 9.01392 5.65218C6.93292 7.73318 7.4943 11.1983 10.1077 12.4275C12.2854 13.4535 14.8988 12.534 15.8957 10.4143C16.1764 9.8045 16.1958 9.67867 16.2055 8.68173C16.2055 7.63639 16.1958 7.59767 15.8377 6.87174C14.8988 4.97465 12.8855 4.01642 10.9401 4.53909Z" fill="white"/>
</svg>
