<svg width="60" height="59" viewBox="0 0 60 59" fill="none" xmlns="http://www.w3.org/2000/svg">
<g filter="url(#filter0_f_32_2163)">
<g filter="url(#filter1_d_32_2163)">
<path d="M22.0665 32.9931C22.066 34.3919 22.4305 35.7573 23.1233 36.9608L22 41.0732L26.1974 39.9697C27.3538 40.6021 28.6559 40.9353 29.981 40.9358H29.9844C34.3481 40.9358 37.9004 37.3752 37.9022 32.9995C37.9029 30.8788 37.0801 28.8848 35.5853 27.3847C34.0902 25.8847 32.1023 25.0582 29.9844 25.0572C25.62 25.0572 22.0682 28.6173 22.0665 32.9931Z" fill="black"/>
</g>
<path d="M22.0665 32.9931C22.066 34.3919 22.4305 35.7573 23.1233 36.9608L22 41.0732L26.1974 39.9697C27.3538 40.6021 28.6559 40.9353 29.981 40.9358H29.9844C34.3481 40.9358 37.9004 37.3752 37.9022 32.9995C37.9029 30.8788 37.0801 28.8848 35.5853 27.3847C34.0902 25.8847 32.1023 25.0582 29.9844 25.0572C25.62 25.0572 22.0682 28.6173 22.0665 32.9931Z" fill="black" fill-opacity="0.2"/>
</g>
<path d="M22.3506 32.9105C22.3502 34.2558 22.7017 35.5694 23.3701 36.7272L22.2866 40.6833L26.3351 39.6218C27.4505 40.2297 28.7063 40.5505 29.9844 40.551H29.9878C34.1967 40.551 37.6228 37.126 37.6245 32.9164C37.6254 30.8765 36.8317 28.9585 35.3897 27.5154C33.948 26.0724 32.0305 25.2773 29.9876 25.2764C25.7782 25.2764 22.3523 28.701 22.3506 32.9105Z" fill="url(#paint0_linear_32_2163)"/>
<path d="M22.0779 32.9079C22.0774 34.3017 22.4416 35.6623 23.1338 36.8616L22.0115 40.9595L26.2052 39.8599C27.3606 40.49 28.6615 40.8221 29.9855 40.8226H29.9889C34.3488 40.8226 37.8979 37.2745 37.8997 32.9143C37.9005 30.801 37.0783 28.8141 35.5848 27.3193C34.0911 25.8245 32.1049 25.0009 29.9889 25C25.6283 25 22.0796 28.5475 22.0779 32.9079H22.0779ZM24.5753 36.6551L24.4187 36.4065C23.7605 35.3599 23.413 34.1504 23.4136 32.9084C23.415 29.2842 26.3645 26.3357 29.9914 26.3357C31.7477 26.3365 33.3984 27.021 34.64 28.2634C35.8814 29.5057 36.5645 31.1573 36.564 32.9137C36.5625 36.5381 33.6129 39.4869 29.9889 39.4869H29.9863C28.8063 39.4863 27.649 39.1695 26.6397 38.5705L26.3995 38.4282L23.9109 39.0806L24.5753 36.6551Z" fill="url(#paint1_linear_32_2163)"/>
<path fill-rule="evenodd" clip-rule="evenodd" d="M28.0118 29.602C27.8637 29.2729 27.7079 29.2662 27.567 29.2605C27.4518 29.2556 27.3199 29.2559 27.1882 29.2559C27.0564 29.2559 26.8422 29.3054 26.6611 29.5032C26.4799 29.701 25.9692 30.1791 25.9692 31.1516C25.9692 32.1242 26.6776 33.0639 26.7764 33.1959C26.8752 33.3277 28.1438 35.3872 30.1529 36.1795C31.8227 36.838 32.1625 36.707 32.5249 36.674C32.8873 36.6411 33.6944 36.196 33.8591 35.7344C34.0238 35.2729 34.0238 34.8773 33.9744 34.7946C33.925 34.7123 33.7932 34.6628 33.5955 34.564C33.3978 34.4651 32.426 33.9869 32.2448 33.921C32.0636 33.8551 31.9318 33.8222 31.8 34.02C31.6682 34.2178 31.2897 34.6628 31.1743 34.7947C31.059 34.9268 30.9437 34.9432 30.746 34.8444C30.5483 34.7452 29.9117 34.5367 29.1565 33.8634C28.5688 33.3395 28.1722 32.6925 28.0568 32.4946C27.9415 32.2969 28.0445 32.1898 28.1436 32.0912C28.2324 32.0027 28.3413 31.8605 28.4401 31.7451C28.5388 31.6297 28.5717 31.5473 28.6376 31.4155C28.7035 31.2835 28.6706 31.1681 28.6212 31.0692C28.5717 30.9704 28.1876 29.9928 28.0118 29.602Z" fill="white"/>
<defs>
<filter id="filter0_f_32_2163" x="18.5863" y="21.6434" width="22.7298" height="22.8435" filterUnits="userSpaceOnUse" color-interpolation-filters="sRGB">
<feFlood flood-opacity="0" result="BackgroundImageFix"/>
<feBlend mode="normal" in="SourceGraphic" in2="BackgroundImageFix" result="shape"/>
<feGaussianBlur stdDeviation="1.70686" result="effect1_foregroundBlur_32_2163"/>
</filter>
<filter id="filter1_d_32_2163" x="0.664278" y="0.307691" width="58.5738" height="58.6876" filterUnits="userSpaceOnUse" color-interpolation-filters="sRGB">
<feFlood flood-opacity="0" result="BackgroundImageFix"/>
<feColorMatrix in="SourceAlpha" type="matrix" values="0 0 0 0 0 0 0 0 0 0 0 0 0 0 0 0 0 0 127 0" result="hardAlpha"/>
<feOffset dy="-3.41372"/>
<feGaussianBlur stdDeviation="10.6679"/>
<feComposite in2="hardAlpha" operator="out"/>
<feColorMatrix type="matrix" values="0 0 0 0 0 0 0 0 0 0 0 0 0 0 0 0 0 0 0.21 0"/>
<feBlend mode="normal" in2="BackgroundImageFix" result="effect1_dropShadow_32_2163"/>
<feBlend mode="normal" in="SourceGraphic" in2="effect1_dropShadow_32_2163" result="shape"/>
</filter>
<linearGradient id="paint0_linear_32_2163" x1="29.9555" y1="40.6834" x2="29.9555" y2="25.2764" gradientUnits="userSpaceOnUse">
<stop stop-color="#20B038"/>
<stop offset="1" stop-color="#60D66A"/>
</linearGradient>
<linearGradient id="paint1_linear_32_2163" x1="29.9556" y1="40.9595" x2="29.9556" y2="25" gradientUnits="userSpaceOnUse">
<stop stop-color="#F9F9F9"/>
<stop offset="1" stop-color="white"/>
</linearGradient>
</defs>
</svg>
