<svg xmlns="http://www.w3.org/2000/svg" width="34" height="34" viewBox="0 0 34 34">
  <g id="x-square" transform="translate(1 1)">
    <path id="x-square-2" data-name="x-square" d="M13.667,13.667,24.333,24.333m0-10.667L13.667,24.333M11.533,35H26.467c2.987,0,4.48,0,5.621-.581a5.332,5.332,0,0,0,2.331-2.331C35,30.947,35,29.454,35,26.467V11.533c0-2.987,0-4.48-.581-5.621a5.333,5.333,0,0,0-2.331-2.331C30.947,3,29.454,3,26.467,3H11.533c-2.987,0-4.48,0-5.621.581A5.333,5.333,0,0,0,3.581,5.912C3,7.053,3,8.546,3,11.533V26.467c0,2.987,0,4.48.581,5.621a5.333,5.333,0,0,0,2.331,2.331C7.053,35,8.546,35,11.533,35Z" transform="translate(-3 -3)" fill="none" stroke="#92fff7" stroke-linecap="round" stroke-linejoin="round" stroke-width="2"/>
  </g>
</svg>
