<svg width="97" height="75" viewBox="0 0 97 75" fill="none" xmlns="http://www.w3.org/2000/svg">
<g clip-path="url(#clip0_312_4335)">
<path d="M94.5166 11.6979C93.9673 9.4369 92.8957 7.3756 91.4086 5.71928C89.9215 4.06297 88.0707 2.86942 86.0406 2.2575C78.6083 0 48.6959 0 48.6959 0C48.6959 0 18.7821 0.0683331 11.3498 2.32583C9.31965 2.93779 7.46886 4.1314 5.98173 5.78779C4.49461 7.44419 3.42305 9.50557 2.87375 11.7667C0.62567 26.4742 -0.246404 48.885 2.93548 63.0042C3.48483 65.2652 4.55642 67.3265 6.04354 68.9828C7.53066 70.6391 9.38143 71.8327 11.4115 72.4446C18.8438 74.7021 48.7569 74.7021 48.7569 74.7021C48.7569 74.7021 78.6697 74.7021 86.1016 72.4446C88.1317 71.8327 89.9826 70.6392 91.4698 68.9829C92.957 67.3266 94.0286 65.2652 94.578 63.0042C96.9492 48.2758 97.6798 25.8788 94.5166 11.6979Z" fill="#FF0000"/>
<path d="M39.1749 53.3584L63.9895 37.3509L39.1749 21.3434V53.3584Z" fill="white"/>
</g>
<defs>
<clipPath id="clip0_312_4335">
<rect width="95.7746" height="75" fill="white" transform="translate(0.857178)"/>
</clipPath>
</defs>
</svg>
