<svg id="Layer_2" data-name="Layer 2" xmlns="http://www.w3.org/2000/svg" width="181.818" height="64" viewBox="0 0 181.818 64">
  <g id="Layer_1" data-name="Layer 1">
    <rect id="Rectangle_2025" data-name="Rectangle 2025" width="181.818" height="63.967" fill="#fff"/>
    <path id="Path_113" data-name="Path 113" d="M.69,30.681H181.774V30.27H.69" transform="translate(-0.439 -19.263)" fill="#929497"/>
    <path id="Path_114" data-name="Path 114" d="M239.916,6.5a2.5,2.5,0,0,0,.407.789,1.854,1.854,0,0,0,.615.5,1.6,1.6,0,0,0,.727.171,1.68,1.68,0,0,0,.764-.171,1.633,1.633,0,0,0,.607-.516,2.221,2.221,0,0,0,.4-.815,4.134,4.134,0,0,0,.135-1.091,4.265,4.265,0,0,0-.062-.727,4,4,0,0,0-.178-.644,1.975,1.975,0,0,0-.658-.905,1.669,1.669,0,0,0-.48-.233,1.76,1.76,0,0,0-.516-.08,1.706,1.706,0,0,0-.727.153,1.887,1.887,0,0,0-.622.469,1.942,1.942,0,0,0-.422.825,4.615,4.615,0,0,0-.145,1.244,3.7,3.7,0,0,0,.153,1.029Zm-.695-2.487a2.942,2.942,0,0,1,.556-1.091,2.425,2.425,0,0,1,.844-.68,2.509,2.509,0,0,1,1.091-.229,2.455,2.455,0,0,1,.727.109,2.572,2.572,0,0,1,.644.313,2.629,2.629,0,0,1,.549.513,2.848,2.848,0,0,1,.4.676,4.146,4.146,0,0,1,.24.815,4.95,4.95,0,0,1,.08.92,4.952,4.952,0,0,1-.08.92,3.551,3.551,0,0,1-.258.822,2.567,2.567,0,0,1-.411.68,2.411,2.411,0,0,1-.578.516,2.586,2.586,0,0,1-.655.287,2.818,2.818,0,0,1-.705.087,2.615,2.615,0,0,1-.727-.1,2.422,2.422,0,0,1-.673-.32,2.666,2.666,0,0,1-.513-.52,2.814,2.814,0,0,1-.4-.676,4.186,4.186,0,0,1-.233-.789,4.294,4.294,0,0,1-.076-.815,4.965,4.965,0,0,1,.175-1.436Z" transform="translate(-152.12 -1.278)" fill="#808184" fill-rule="evenodd"/>
    <path id="Path_115" data-name="Path 115" d="M258.566,11.225a1.644,1.644,0,0,1-.545.578,1.411,1.411,0,0,1-.727.193,1.756,1.756,0,0,1-.342-.033l-.324-.105-.265-.182-.185-.218-.127-.269a1.371,1.371,0,0,1-.091-.32,1.96,1.96,0,0,1-.029-.295c0-.127,0-.273,0-.44V7.25h.684v3.1a2.366,2.366,0,0,0,.033.316l.105.276.175.215.233.135.273.044.3-.044.28-.142.24-.218.142-.28a1.554,1.554,0,0,0,.08-.364,3.69,3.69,0,0,0,.033-.52V7.25h.687V11.9h-.625Z" transform="translate(-162.864 -4.614)" fill="#808184" fill-rule="evenodd"/>
    <path id="Path_116" data-name="Path 116" d="M267.8,7.053h.622v.709a3.547,3.547,0,0,1,.215-.415.825.825,0,0,1,.211-.24l.207-.124.236-.044a.916.916,0,0,1,.342.073,1.305,1.305,0,0,1,.364.193l-.229.727-.258-.127-.251-.044-.207.04-.182.113-.16.189-.1.24a2.549,2.549,0,0,0-.087.447,4.143,4.143,0,0,0-.029.48v2.436H267.8Z" transform="translate(-170.418 -4.416)" fill="#808184" fill-rule="evenodd"/>
    <path id="Path_117" data-name="Path 117" d="M281,2.38h1.091l1.316,4.556c.055.207.105.4.156.556s.084.287.116.389c.033-.124.073-.265.116-.436s.1-.364.171-.589l1.324-4.476h1V8.805h-.705V3.416l-1.615,5.389h-.658L281.7,3.333V8.805H281Z" transform="translate(-178.818 -1.515)" fill="#808184" fill-rule="evenodd"/>
    <path id="Path_118" data-name="Path 118" d="M298.59,4.151h.684V8.805h-.684Zm0-1.771h.684v.905h-.684Z" transform="translate(-190.012 -1.515)" fill="#808184" fill-rule="evenodd"/>
    <path id="Path_119" data-name="Path 119" d="M303.213,10.2a1.539,1.539,0,0,0,.116.415,1.131,1.131,0,0,0,.207.305.913.913,0,0,0,.313.189,1.225,1.225,0,0,0,.415.062,1.371,1.371,0,0,0,.411-.055.575.575,0,0,0,.28-.171l.178-.236.058-.284-.047-.229-.156-.189a1.5,1.5,0,0,0-.244-.12c-.116-.044-.265-.091-.451-.145-.258-.08-.473-.149-.644-.211s-.305-.124-.4-.167l-.247-.2-.189-.255-.113-.295a1.178,1.178,0,0,1-.044-.324l.033-.3.095-.284.153-.233.189-.207.193-.127.244-.1.284-.073a1.894,1.894,0,0,1,.305-.029,2.109,2.109,0,0,1,.444.044,1.771,1.771,0,0,1,.385.124,1.575,1.575,0,0,1,.309.182l.218.236a1.821,1.821,0,0,1,.145.316,1.676,1.676,0,0,1,.08.415l-.662.095a.728.728,0,0,0-.08-.313l-.175-.244-.262-.149a1.091,1.091,0,0,0-.364-.058,1.455,1.455,0,0,0-.4.047.564.564,0,0,0-.258.142l-.156.193-.055.225.022.149.062.127.1.12.156.1.2.065.407.131c.24.08.447.145.611.207a3.319,3.319,0,0,1,.4.164l.255.167.2.244a.848.848,0,0,1,.12.3,1.645,1.645,0,0,1,.036.364,1.455,1.455,0,0,1-.047.382,1.323,1.323,0,0,1-.149.364,1.509,1.509,0,0,1-.24.305,1.222,1.222,0,0,1-.342.229,1.574,1.574,0,0,1-.389.127,2.182,2.182,0,0,1-.447.047,2.455,2.455,0,0,1-.691-.087,1.222,1.222,0,0,1-.513-.273,1.563,1.563,0,0,1-.327-.469,2.545,2.545,0,0,1-.2-.644Z" transform="translate(-192.526 -4.416)" fill="#808184" fill-rule="evenodd"/>
    <path id="Path_120" data-name="Path 120" d="M313.909,10.2a1.684,1.684,0,0,0,.109.415,1.233,1.233,0,0,0,.211.305.865.865,0,0,0,.316.189,1.182,1.182,0,0,0,.407.062,1.414,1.414,0,0,0,.415-.055.607.607,0,0,0,.28-.171l.175-.236.062-.284-.051-.229-.156-.189a1.359,1.359,0,0,0-.244-.12c-.113-.044-.262-.091-.451-.145-.255-.08-.465-.149-.64-.211s-.305-.124-.4-.167l-.247-.2-.189-.255-.113-.295a1.337,1.337,0,0,1-.044-.324l.033-.3.095-.284.149-.233.193-.207.193-.127.24-.1.287-.073a1.894,1.894,0,0,1,.305-.029,2.135,2.135,0,0,1,.444.044,1.681,1.681,0,0,1,.382.124,1.607,1.607,0,0,1,.313.182l.218.236a1.821,1.821,0,0,1,.145.316,1.867,1.867,0,0,1,.08.415l-.662.095a.858.858,0,0,0-.062-.3l-.182-.244-.266-.149a1.051,1.051,0,0,0-.364-.058,1.425,1.425,0,0,0-.4.047.615.615,0,0,0-.266.142l-.156.193-.051.225.018.149.065.127.1.12.156.1.2.065.411.131c.24.08.447.145.611.207a2.8,2.8,0,0,1,.393.164l.258.167.2.244a1.018,1.018,0,0,1,.127.3,2.709,2.709,0,0,1,.033.364,1.615,1.615,0,0,1-.047.382,1.344,1.344,0,0,1-.156.364,1.633,1.633,0,0,1-.236.305,1.259,1.259,0,0,1-.338.229,1.655,1.655,0,0,1-.393.127,2.182,2.182,0,0,1-.447.047,2.5,2.5,0,0,1-.695-.087,1.229,1.229,0,0,1-.509-.273,1.564,1.564,0,0,1-.327-.469,2.394,2.394,0,0,1-.2-.644Z" transform="translate(-199.335 -4.416)" fill="#808184" fill-rule="evenodd"/>
    <path id="Path_121" data-name="Path 121" d="M324.68,4.151h.68V8.805h-.68Zm0-1.771h.68v.905h-.68Z" transform="translate(-206.615 -1.515)" fill="#808184" fill-rule="evenodd"/>
    <path id="Path_122" data-name="Path 122" d="M329.474,10.161a1.65,1.65,0,0,0,.251.56,1.316,1.316,0,0,0,.385.335.985.985,0,0,0,.473.113.953.953,0,0,0,.462-.113,1.207,1.207,0,0,0,.364-.335,1.455,1.455,0,0,0,.258-.567,3.477,3.477,0,0,0,.084-.8,3.114,3.114,0,0,0-.084-.76,1.421,1.421,0,0,0-.258-.549,1.123,1.123,0,0,0-.364-.335.953.953,0,0,0-.462-.113,1.025,1.025,0,0,0-.473.105,1.131,1.131,0,0,0-.385.335,1.571,1.571,0,0,0-.251.556,3.105,3.105,0,0,0-.08.778A3.163,3.163,0,0,0,329.474,10.161Zm-.629-1.913a1.865,1.865,0,0,1,.465-.782,1.742,1.742,0,0,1,.582-.4,1.869,1.869,0,0,1,.691-.131,1.7,1.7,0,0,1,1.356.633,2.058,2.058,0,0,1,.4.749,3.486,3.486,0,0,1,.135.993,4.728,4.728,0,0,1-.065.8,2.567,2.567,0,0,1-.178.615,1.546,1.546,0,0,1-.28.455,1.818,1.818,0,0,1-.4.345,1.5,1.5,0,0,1-.462.2,2.04,2.04,0,0,1-1.269-.08,1.611,1.611,0,0,1-.6-.469,2.128,2.128,0,0,1-.4-.76,3.925,3.925,0,0,1-.131-1.047,3.673,3.673,0,0,1,.156-1.127Z" transform="translate(-209.165 -4.416)" fill="#808184" fill-rule="evenodd"/>
    <path id="Path_123" data-name="Path 123" d="M341.24,7.052h.64v.662a1.673,1.673,0,0,1,.553-.582,1.491,1.491,0,0,1,.727-.193,1.371,1.371,0,0,1,.364.044,1.694,1.694,0,0,1,.324.113l.265.171.193.222.131.265c.029.1.058.207.08.324a2.027,2.027,0,0,1,.029.309c.007.131,0,.284,0,.458v2.862h-.687V8.874a3.462,3.462,0,0,0-.022-.418,1.4,1.4,0,0,0-.058-.3l-.109-.222-.167-.167-.229-.113-.251-.029a1.091,1.091,0,0,0-.411.08,1.138,1.138,0,0,0-.345.24,1.091,1.091,0,0,0-.236.465,2.759,2.759,0,0,0-.087.753v2.545h-.684Z" transform="translate(-217.153 -4.416)" fill="#808184" fill-rule="evenodd"/>
    <rect id="Rectangle_2026" data-name="Rectangle 2026" width="0.778" height="0.898" transform="translate(128.607 6.393)" fill="#929497"/>
    <rect id="Rectangle_2027" data-name="Rectangle 2027" width="0.775" height="0.898" transform="translate(130.233 6.393)" fill="#929497"/>
    <rect id="Rectangle_2028" data-name="Rectangle 2028" width="0.778" height="0.898" transform="translate(131.858 6.393)" fill="#929497"/>
    <path id="Path_124" data-name="Path 124" d="M372.632,6.085,370.49,2.38h.913l1.091,1.931c.095.185.193.364.291.553s.189.364.28.545a5.38,5.38,0,0,1,.269-.545l.331-.6,1.091-1.887h.862l-2.251,3.705v2.72h-.727Z" transform="translate(-235.766 -1.515)" fill="#808184" fill-rule="evenodd"/>
    <path id="Path_125" data-name="Path 125" d="M384.2,10.162a1.574,1.574,0,0,0,.244.56,1.3,1.3,0,0,0,.393.335.964.964,0,0,0,.469.113.931.931,0,0,0,.458-.113,1.171,1.171,0,0,0,.364-.335,1.574,1.574,0,0,0,.262-.567,3.69,3.69,0,0,0,.084-.8,3.3,3.3,0,0,0-.084-.76,1.542,1.542,0,0,0-.262-.549,1.091,1.091,0,0,0-.364-.335.931.931,0,0,0-.458-.113,1,1,0,0,0-.469.105,1.12,1.12,0,0,0-.393.335,1.5,1.5,0,0,0-.244.556,3.273,3.273,0,0,0-.087.778A3.318,3.318,0,0,0,384.2,10.162Zm-.636-1.913a1.909,1.909,0,0,1,.469-.782,1.768,1.768,0,0,1,.578-.4,1.873,1.873,0,0,1,.695-.131,1.753,1.753,0,0,1,.749.16,1.777,1.777,0,0,1,.607.473,2,2,0,0,1,.4.749,3.368,3.368,0,0,1,.131.993,4.733,4.733,0,0,1-.062.8,2.567,2.567,0,0,1-.178.615,1.72,1.72,0,0,1-.284.455,1.818,1.818,0,0,1-.4.345,1.5,1.5,0,0,1-.462.2,1.938,1.938,0,0,1-.5.065,1.913,1.913,0,0,1-.767-.145,1.669,1.669,0,0,1-.6-.469,2.066,2.066,0,0,1-.393-.76,3.636,3.636,0,0,1-.138-1.047,3.785,3.785,0,0,1,.156-1.127Z" transform="translate(-243.988 -4.416)" fill="#808184" fill-rule="evenodd"/>
    <path id="Path_126" data-name="Path 126" d="M398.616,11.225a1.611,1.611,0,0,1-.545.578,1.4,1.4,0,0,1-.727.193,1.785,1.785,0,0,1-.342-.033,2.933,2.933,0,0,1-.316-.105l-.269-.182-.189-.218-.131-.269a2.25,2.25,0,0,1-.087-.32,2.583,2.583,0,0,1-.029-.295c0-.127,0-.273,0-.44V7.25h.687v3.1a1.953,1.953,0,0,0,.029.316l.105.276.175.215.229.135.28.044.3-.044.28-.142.236-.218.149-.28a1.566,1.566,0,0,0,.076-.364,3.179,3.179,0,0,0,.036-.52V7.25h.7V11.9h-.625Z" transform="translate(-251.987 -4.614)" fill="#808184" fill-rule="evenodd"/>
    <path id="Path_127" data-name="Path 127" d="M407.85,7.053h.625v.709a2.4,2.4,0,0,1,.218-.415.76.76,0,0,1,.2-.24l.218-.124.229-.044a.916.916,0,0,1,.342.073,1.306,1.306,0,0,1,.364.193l-.229.727-.258-.127-.247-.044-.211.04-.182.113-.164.189-.095.24a2.27,2.27,0,0,0-.1.436c0,.156-.025.316-.025.48V11.7h-.684Z" transform="translate(-259.541 -4.416)" fill="#808184" fill-rule="evenodd"/>
    <path id="Path_128" data-name="Path 128" d="M423.376,5.285h2.353V7.666a4.658,4.658,0,0,1-.549.444,3.389,3.389,0,0,1-.571.313l-.145.058-.145.04a4.525,4.525,0,0,1-.444.1,2.677,2.677,0,0,1-.455.033,3.211,3.211,0,0,1-.778-.095,2.6,2.6,0,0,1-.709-.291,2.353,2.353,0,0,1-.585-.5,2.677,2.677,0,0,1-.425-.684,4.128,4.128,0,0,1-.255-.818,4.48,4.48,0,0,1-.087-.9,4.517,4.517,0,0,1,.342-1.753,3.272,3.272,0,0,1,.415-.727,2.051,2.051,0,0,1,.56-.5,2.909,2.909,0,0,1,.687-.3,3.2,3.2,0,0,1,.782-.095,3,3,0,0,1,.578.055,2.593,2.593,0,0,1,.52.182,1.869,1.869,0,0,1,.433.265,1.7,1.7,0,0,1,.324.364,2.258,2.258,0,0,1,.24.484,4.65,4.65,0,0,1,.175.585l-.665.207a2.522,2.522,0,0,0-.138-.433,1.632,1.632,0,0,0-.171-.338l-.229-.247a1.748,1.748,0,0,0-.309-.2,1.582,1.582,0,0,0-.364-.12,1.818,1.818,0,0,0-.4-.04,2.451,2.451,0,0,0-.476.04,1.749,1.749,0,0,0-.4.131,2.236,2.236,0,0,0-.324.207l-.269.262-.2.3a1.913,1.913,0,0,0-.153.338,4.073,4.073,0,0,0-.218,1.295,4.759,4.759,0,0,0,.062.789,2.7,2.7,0,0,0,.2.647,1.819,1.819,0,0,0,.309.5,1.768,1.768,0,0,0,.44.364,1.793,1.793,0,0,0,.5.211,2.01,2.01,0,0,0,.531.073,2.076,2.076,0,0,0,.473-.058,2.349,2.349,0,0,0,.458-.156,2.4,2.4,0,0,0,.411-.222,1.991,1.991,0,0,0,.287-.233v-1.2h-1.629Z" transform="translate(-267.642 -1.266)" fill="#808184" fill-rule="evenodd"/>
    <path id="Path_129" data-name="Path 129" d="M437.41,7.053h.622v.709a4.223,4.223,0,0,1,.215-.415.883.883,0,0,1,.211-.24l.215-.124.229-.044a.92.92,0,0,1,.345.073,1.342,1.342,0,0,1,.364.193l-.229.727-.258-.127-.247-.044-.207.04-.185.113-.16.189-.1.24a2.543,2.543,0,0,0-.084.447,3.469,3.469,0,0,0-.033.48v2.436h-.68Z" transform="translate(-278.352 -4.416)" fill="#808184" fill-rule="evenodd"/>
    <path id="Path_130" data-name="Path 130" d="M444.592,10.161a1.647,1.647,0,0,0,.247.56,1.283,1.283,0,0,0,.389.335,1.018,1.018,0,0,0,.931,0,1.207,1.207,0,0,0,.364-.335,1.454,1.454,0,0,0,.255-.567,3.273,3.273,0,0,0,.087-.8,2.933,2.933,0,0,0-.091-.76,1.419,1.419,0,0,0-.255-.549,1.124,1.124,0,0,0-.364-.335.964.964,0,0,0-.473-.113,1.011,1.011,0,0,0-.469.105,1.109,1.109,0,0,0-.389.335,1.568,1.568,0,0,0-.233.556,3.274,3.274,0,0,0-.087.778,3.322,3.322,0,0,0,.087.785Zm-.636-1.913a1.869,1.869,0,0,1,.469-.782,1.768,1.768,0,0,1,.578-.4,1.9,1.9,0,0,1,.68-.131,1.716,1.716,0,0,1,1.356.633,2.121,2.121,0,0,1,.4.749,3.5,3.5,0,0,1,.127.993,4.727,4.727,0,0,1-.062.8,2.575,2.575,0,0,1-.175.615,1.719,1.719,0,0,1-.284.455,1.988,1.988,0,0,1-.4.345,1.512,1.512,0,0,1-.465.2,2.04,2.04,0,0,1-1.269-.08,1.64,1.64,0,0,1-.6-.469,2.058,2.058,0,0,1-.389-.76,3.512,3.512,0,0,1-.138-1.047,3.794,3.794,0,0,1,.164-1.127Z" transform="translate(-282.411 -4.416)" fill="#808184" fill-rule="evenodd"/>
    <path id="Path_131" data-name="Path 131" d="M455,7.25h.727l.651,2.687.244,1a2.241,2.241,0,0,1,.047-.28c.033-.16.08-.389.145-.68l.651-2.731h.695l.611,2.705.2.891.24-.9.68-2.7h.665L459.3,11.9h-.727l-.64-2.782-.16-.8L456.96,11.9h-.727Z" transform="translate(-289.545 -4.614)" fill="#808184" fill-rule="evenodd"/>
    <path id="Path_132" data-name="Path 132" d="M472.763,9.054l-.273.033h-.24a1.494,1.494,0,0,1-.327-.025l-.258-.091-.171-.156-.113-.2a1.885,1.885,0,0,1-.062-.345c0-.153,0-.364,0-.578V5h-.509V4.4h.509V3.246l.651-.476V4.4h.684V5h-.684V7.745q-.007.136,0,.273l.029.16.047.08.065.065.109.047h.255l.167-.018Z" transform="translate(-299.606 -1.763)" fill="#808184" fill-rule="evenodd"/>
    <path id="Path_133" data-name="Path 133" d="M477.661,2.38h.684V4.685a1.578,1.578,0,0,1,.545-.48,1.342,1.342,0,0,1,.665-.167,1.691,1.691,0,0,1,.422.055,1.95,1.95,0,0,1,.364.153,1.15,1.15,0,0,1,.28.247,1.208,1.208,0,0,1,.185.32,1.535,1.535,0,0,1,.12.436,4.363,4.363,0,0,1,.036.607V8.805h-.684V5.856a1.953,1.953,0,0,0-.058-.513.893.893,0,0,0-.167-.364l-.276-.193a.847.847,0,0,0-.364-.069l-.3.044-.284.135-.229.218-.149.276a1.738,1.738,0,0,0-.087.364,3.278,3.278,0,0,0-.033.495V8.795h-.684Z" transform="translate(-303.959 -1.515)" fill="#808184" fill-rule="evenodd"/>
    <path id="Path_134" data-name="Path 134" d="M.69,42.715H181.774V42.3H.69" transform="translate(-0.439 -26.918)" fill="#929497"/>
    <path id="Path_135" data-name="Path 135" d="M.69,54.751H181.774V54.34H.69" transform="translate(-0.439 -34.58)" fill="#929497"/>
    <path id="Path_136" data-name="Path 136" d="M.69,66.785H181.774V66.37H.69" transform="translate(-0.439 -42.235)" fill="#929497"/>
    <path id="Path_137" data-name="Path 137" d="M.69,78.815H181.774V78.4H.69" transform="translate(-0.439 -49.891)" fill="#929497"/>
    <path id="Path_138" data-name="Path 138" d="M.69,90.865H181.774V90.45H.69" transform="translate(-0.439 -57.559)" fill="#929497"/>
    <path id="Path_139" data-name="Path 139" d="M.69,102.911H181.774V102.5H.69" transform="translate(-0.439 -65.227)" fill="#929497"/>
    <path id="Path_140" data-name="Path 140" d="M.69,114.951H181.774v-.411H.69" transform="translate(-0.439 -72.889)" fill="#929497"/>
    <path id="Path_141" data-name="Path 141" d="M.69,126.981H181.774v-.411H.69" transform="translate(-0.439 -80.545)" fill="#929497"/>
    <path id="Path_142" data-name="Path 142" d="M.69,139.015H181.774V138.6H.69" transform="translate(-0.439 -88.2)" fill="#929497"/>
    <path id="Path_143" data-name="Path 143" d="M.69,151.045H181.774v-.415H.69" transform="translate(-0.439 -95.855)" fill="#929497"/>
    <path id="Path_144" data-name="Path 144" d="M.69,163.085H181.774v-.415H.69" transform="translate(-0.439 -103.517)" fill="#929497"/>
    <path id="Path_145" data-name="Path 145" d="M13.46,20.32V76.931h.415V20.32" transform="translate(-8.565 -12.931)" fill="#929497"/>
    <path id="Path_146" data-name="Path 146" d="M24.71,20.32V76.931h.418V20.32" transform="translate(-15.725 -12.931)" fill="#929497"/>
    <path id="Path_147" data-name="Path 147" d="M35.97,20.32V76.931h.415V20.32" transform="translate(-22.89 -12.931)" fill="#929497"/>
    <path id="Path_148" data-name="Path 148" d="M47.22,20.32V76.931h.415V20.32" transform="translate(-30.049 -12.931)" fill="#929497"/>
    <path id="Path_149" data-name="Path 149" d="M58.49,20.32V76.931H58.9V20.32" transform="translate(-37.221 -12.931)" fill="#929497"/>
    <path id="Path_150" data-name="Path 150" d="M69.74,20.32V76.931h.415V20.32" transform="translate(-44.38 -12.931)" fill="#929497"/>
    <path id="Path_151" data-name="Path 151" d="M80.99,20.32V76.931H81.4V20.32" transform="translate(-51.539 -12.931)" fill="#929497"/>
    <path id="Path_152" data-name="Path 152" d="M92.25,20.32V76.931h.415V20.32" transform="translate(-58.705 -12.931)" fill="#929497"/>
    <path id="Path_153" data-name="Path 153" d="M103.5,20.32V76.931h.415V20.32" transform="translate(-65.864 -12.931)" fill="#929497"/>
    <path id="Path_154" data-name="Path 154" d="M114.75,20.32V76.931h.415V20.32" transform="translate(-73.023 -12.931)" fill="#929497"/>
    <path id="Path_155" data-name="Path 155" d="M126.02,20.32V76.931h.411V20.32" transform="translate(-80.195 -12.931)" fill="#929497"/>
    <path id="Path_156" data-name="Path 156" d="M137.26,20.32V76.931h.415V20.32" transform="translate(-87.347 -12.931)" fill="#929497"/>
    <path id="Path_157" data-name="Path 157" d="M148.52,20.32V76.931h.415V20.32" transform="translate(-94.513 -12.931)" fill="#929497"/>
    <path id="Path_158" data-name="Path 158" d="M159.77,20.32V76.931h.415V20.32" transform="translate(-101.672 -12.931)" fill="#929497"/>
    <path id="Path_159" data-name="Path 159" d="M171.01,20.32V76.931h.418V20.32" transform="translate(-108.825 -12.931)" fill="#929497"/>
    <path id="Path_160" data-name="Path 160" d="M182.28,20.32V76.931h.415V20.32" transform="translate(-115.996 -12.931)" fill="#929497"/>
    <path id="Path_161" data-name="Path 161" d="M193.54,20.32V76.931h.415V20.32" transform="translate(-123.162 -12.931)" fill="#929497"/>
    <path id="Path_162" data-name="Path 162" d="M204.78,20.32V76.931h.418V20.32" transform="translate(-130.315 -12.931)" fill="#929497"/>
    <path id="Path_163" data-name="Path 163" d="M216.04,20.32V76.931h.418V20.32" transform="translate(-137.48 -12.931)" fill="#929497"/>
    <path id="Path_164" data-name="Path 164" d="M227.29,20.32V76.931h.415V20.32" transform="translate(-144.639 -12.931)" fill="#929497"/>
    <path id="Path_165" data-name="Path 165" d="M238.56,20.32V76.931h.415V20.32" transform="translate(-151.811 -12.931)" fill="#929497"/>
    <path id="Path_166" data-name="Path 166" d="M249.81,20.32V76.931h.415V20.32" transform="translate(-158.97 -12.931)" fill="#929497"/>
    <path id="Path_167" data-name="Path 167" d="M261.06,20.32V76.931h.415V20.32" transform="translate(-166.129 -12.931)" fill="#929497"/>
    <path id="Path_168" data-name="Path 168" d="M272.31,20.32V76.931h.415V20.32" transform="translate(-173.288 -12.931)" fill="#929497"/>
    <path id="Path_169" data-name="Path 169" d="M283.56,20.32V76.931h.415V20.32" transform="translate(-180.447 -12.931)" fill="#929497"/>
    <path id="Path_170" data-name="Path 170" d="M294.82,20.32V76.931h.415V20.32" transform="translate(-187.613 -12.931)" fill="#929497"/>
    <path id="Path_171" data-name="Path 171" d="M306.08,20.32V76.931h.418V20.32" transform="translate(-194.778 -12.931)" fill="#929497"/>
    <path id="Path_172" data-name="Path 172" d="M317.33,20.32V76.931h.418V20.32" transform="translate(-201.937 -12.931)" fill="#929497"/>
    <path id="Path_173" data-name="Path 173" d="M328.59,20.32V76.931h.418V20.32" transform="translate(-209.103 -12.931)" fill="#929497"/>
    <path id="Path_174" data-name="Path 174" d="M339.85,20.32V76.931h.415V20.32" transform="translate(-216.268 -12.931)" fill="#929497"/>
    <path id="Path_175" data-name="Path 175" d="M351.1,20.32V76.931h.415V20.32" transform="translate(-223.427 -12.931)" fill="#929497"/>
    <path id="Path_176" data-name="Path 176" d="M362.36,20.32V76.931h.415V20.32" transform="translate(-230.593 -12.931)" fill="#929497"/>
    <path id="Path_177" data-name="Path 177" d="M373.61,20.32V76.931h.415V20.32" transform="translate(-237.752 -12.931)" fill="#929497"/>
    <path id="Path_178" data-name="Path 178" d="M384.87,20.32V76.931h.411V20.32" transform="translate(-244.917 -12.931)" fill="#929497"/>
    <path id="Path_179" data-name="Path 179" d="M396.12,20.32V76.931h.415V20.32" transform="translate(-252.076 -12.931)" fill="#929497"/>
    <path id="Path_180" data-name="Path 180" d="M407.38,20.32V76.931h.415V20.32" transform="translate(-259.242 -12.931)" fill="#929497"/>
    <path id="Path_181" data-name="Path 181" d="M418.63,20.32V76.931h.415V20.32" transform="translate(-266.401 -12.931)" fill="#929497"/>
    <path id="Path_182" data-name="Path 182" d="M429.9,20.32V76.931h.415V20.32" transform="translate(-273.573 -12.931)" fill="#929497"/>
    <path id="Path_183" data-name="Path 183" d="M441.13,20.32V76.931h.418V20.32" transform="translate(-280.719 -12.931)" fill="#929497"/>
    <path id="Path_184" data-name="Path 184" d="M452.4,20.32V76.931h.415V20.32" transform="translate(-287.891 -12.931)" fill="#929497"/>
    <path id="Path_185" data-name="Path 185" d="M463.65,20.32V76.931h.411V20.32" transform="translate(-295.05 -12.931)" fill="#929497"/>
    <path id="Path_186" data-name="Path 186" d="M474.9,20.32V76.931h.415V20.32" transform="translate(-302.209 -12.931)" fill="#929497"/>
    <path id="Path_187" data-name="Path 187" d="M486.16,20.32V76.931h.418V20.32" transform="translate(-309.375 -12.931)" fill="#929497"/>
    <path id="Path_188" data-name="Path 188" d="M13.045,51.789c.1-.949.236-1.916.4-2.909a31.225,31.225,0,0,1,5.629-13.164Q23.463,29.651,33.055,29a19.167,19.167,0,0,1,3.473.364,18.182,18.182,0,0,1,4.033,1.295,18.629,18.629,0,0,1,6.047,4.913A21.939,21.939,0,0,1,50.826,45.2H44.6a14.269,14.269,0,0,0-4.549-7.916,10.752,10.752,0,0,0-6.876-2.589h-.462a1.142,1.142,0,0,0-.393.069q-4.825.393-8.887,5.149t-4.309,13.64q0,10.68,4.095,15.429T32.2,73.789h.189a12.8,12.8,0,0,0,8.8-3.684,13.811,13.811,0,0,0,4.4-9.789H51.8c-.084.578-.175,1.16-.276,1.756s-.233,1.211-.4,1.818a25.5,25.5,0,0,1-6.142,10.815,14.951,14.951,0,0,1-11.458,4.913q-10.447.335-15.578-7.273a30.9,30.9,0,0,1-5.12-17.735C12.87,53.676,12.943,52.742,13.045,51.789Z" transform="translate(-8.165 -18.455)" fill="#0b509d" fill-rule="evenodd"/>
    <path id="Path_189" data-name="Path 189" d="M147.552,38.78,134.537,79.005H127.81L143.7,30.42h7.211l16.316,48.585H160.5Z" transform="translate(-81.334 -19.358)" fill="#80807c" fill-rule="evenodd"/>
    <path id="Path_190" data-name="Path 190" d="M252.25,30.42h8.927l12.982,40.756L287.137,30.42h8.993V79.005h-6.524V40.311L277.134,79.005h-5.953L258.712,40.838V79.005H252.25Z" transform="translate(-160.523 -19.358)" fill="#0b509d" fill-rule="evenodd"/>
    <path id="Path_191" data-name="Path 191" d="M397.117,62.454q0,5.905,3.636,8.727a13.854,13.854,0,0,0,8.033,3.022h.491a13.64,13.64,0,0,0,7.175-1.96,7.4,7.4,0,0,0,3.764-5.611,2.461,2.461,0,0,0,.058-.491v-.5q0-4.647-3.575-6.276a40.888,40.888,0,0,0-8.153-2.622c-.364-.087-.727-.164-1.04-.233s-.655-.142-.978-.229a32.862,32.862,0,0,1-9.88-4.011q-4.425-2.724-3.88-10.76a13.065,13.065,0,0,1,4.342-8.825q3.978-3.735,11.538-3.687,7.571,0,12.124,3.782t4.2,10.8H419.23v-.727a7.162,7.162,0,0,0-3.2-6.3,13.127,13.127,0,0,0-7.058-2.327H408.6a12.175,12.175,0,0,0-6.811,2.025,7.442,7.442,0,0,0-3.273,6.335,5.985,5.985,0,0,0,3.691,4.96,41.679,41.679,0,0,0,7.425,2.425c.487.135,1,.265,1.527.4l1.593.4a33.952,33.952,0,0,1,9.193,3.815q4.251,2.545,4.982,8.931.364,7.887-5.255,12a21.389,21.389,0,0,1-12.469,4.251h-.178a20,20,0,0,1-12.313-4.222q-5.589-4.215-5.407-13.091Z" transform="translate(-249.012 -18.454)" fill="#0b509d" fill-rule="evenodd"/>
    <path id="Path_192" data-name="Path 192" d="M163.823,70.367a1.222,1.222,0,0,0-.916-.087l-6.131.749a.924.924,0,0,0-.462,1.222.993.993,0,0,0,1.229.509l2.876-.28-3.964,4.5-7.324.476-.28.462-2.545,4.4h-8.4l-.276.364-2.545,3.458h-8.491l-.269.415-3.116,4.945a.92.92,0,0,0,.255,1.276.931.931,0,0,0,1.284-.255l2.84-4.535h8.444l.276-.364,2.545-3.455H147.4l.262-.465,2.545-4.4,7.12-.571.222-.225,4.593-4.971-.095,3.742a.925.925,0,1,0,1.844.153l.324-6.225A.924.924,0,0,0,163.823,70.367Z" transform="translate(-78.307 -44.691)" fill="#0b509d" fill-rule="evenodd"/>
  </g>
</svg>
